G04 Generated by UcamX,v2023.12-240208 on 2025.7.25*
%FSLAX26Y26*%
%MOIN*%
%ADD10C,0.007874*%
%ADD11C,0.039370*%
%ADD12C,0.011811*%
%ADD13C,0.023622*%
%ADD14R,0.250000X0.200000*%
%ADD15R,0.035433X0.031496*%
%ADD16R,0.031496X0.031496*%
%ADD17R,0.011811X0.070866*%
%ADD18R,0.171654X0.161811*%
%ADD19R,0.051181X0.074803*%
%ADD20R,0.061024X0.039370*%
%ADD21C,0.030984*%
%ADD22O,0.070866X0.011811*%
%ADD23O,0.011811X0.070866*%
%ADD24R,0.031496X0.035433*%
%ADD25R,0.106299X0.082677*%
%ADD26R,0.047244X0.070866*%
%ADD27R,0.023622X0.045276*%
G04 layer name: bot*
%LPD*%
D10*
X9929134Y6531496D02*
Y6582677D01*
X9759843Y6763780D02*
X9795276D01*
X9812992Y6781496D01*
Y6836614D01*
X9582205Y7165827D02*
Y7195039D01*
X9507874Y6507874D02*
X9507874D01*
X9551181D01*
X9925197Y6531496D02*
X9929134D01*
X9889764Y6531496D02*
X9925197D01*
X9929134Y6582677D02*
X9937008Y6590551D01*
X9905512Y6940945D02*
X9905512D01*
X9905512Y6905512D02*
Y6940945D01*
X9488189Y6874016D02*
X9511811D01*
X9527559Y6858268D01*
X9527559Y6822834D02*
Y6858268D01*
X9551181Y6507874D02*
X9561024Y6517717D01*
X9596457D01*
X9527559Y6822834D02*
X9531496Y6818897D01*
X9531496Y6799213D02*
Y6818897D01*
X9531496Y6799213D02*
X9545276Y6785433D01*
X9812992Y6836614D02*
X9822834Y6846457D01*
X9854331D01*
X9937008Y6590551D02*
Y6594488D01*
X9903543Y6627953D02*
X9937008Y6594488D01*
X9864173Y6627953D02*
X9903543D01*
X9582205Y7165827D02*
X9590551Y7157480D01*
X9669291Y7070866D02*
Y7120021D01*
X9631832Y7157480D02*
X9669291Y7120021D01*
X9590551Y7157480D02*
X9631832D01*
X9574803Y7070866D02*
X9669291D01*
X8291339Y6700787D02*
X8346457D01*
X8291339Y6651742D02*
Y6700787D01*
X8297244Y6583661D02*
Y6645837D01*
X8291339Y6651742D02*
X8297244Y6645837D01*
X8346457Y6700787D02*
X8425197Y6779528D01*
Y6936735D01*
X8491142Y6838583D02*
Y6979331D01*
X9714567Y6836614D02*
Y6891732D01*
X9590551Y7015748D02*
X9714567Y6891732D01*
X8527559Y7015748D02*
X9590551D01*
X8491142Y6979331D02*
X8527559Y7015748D01*
X9877953Y6484252D02*
X9937008D01*
X9803150Y6456693D02*
X9850394D01*
X9877953Y6484252D01*
X7979331Y8259843D02*
X8186024D01*
X8429134D01*
X8433071Y8255906D01*
X9803150Y6610236D02*
X9805118Y6608268D01*
X9864173D01*
X8488189Y6468504D02*
X8491142Y6471457D01*
Y6547244D01*
X9783465Y6909449D02*
Y6956693D01*
X9783465Y6909449D02*
X9793307Y6899606D01*
X9793307Y6836614D02*
Y6899606D01*
X9854331Y6956693D02*
X9854331D01*
X9783465Y6956693D02*
X9854331D01*
X9964567Y6547244D02*
Y6618110D01*
X9964567Y6523622D02*
Y6547244D01*
X9964567D01*
X9996063D01*
X9937008Y6645669D02*
X9964567Y6618110D01*
X9958661Y6517716D02*
X9964567Y6523622D01*
X9958661Y6505626D02*
Y6517716D01*
X9956693Y6732283D02*
X9976378Y6712598D01*
X9996063D01*
X9935039Y6647638D02*
X9937008Y6645669D01*
X9864173Y6647638D02*
X9935039D01*
X9854331Y6956693D02*
X9854331D01*
X9854331Y6901575D02*
Y6956693D01*
X9854331Y6877953D02*
Y6901575D01*
X9854331Y6877953D02*
X9858268Y6874016D01*
X9944882D01*
X9952756Y6866142D01*
X9952756Y6846457D02*
Y6866142D01*
X8465551Y6838583D02*
Y6896654D01*
X8456693Y6905512D02*
X8465551Y6896654D01*
X8456693Y6905512D02*
Y6968504D01*
X8440945Y6984252D02*
X8456693Y6968504D01*
X8417323Y6984252D02*
X8440945D01*
X8562992Y6996063D02*
X9578740D01*
X8527559Y6960630D02*
X8562992Y6996063D01*
X9578740Y6996063D02*
X9694882Y6879921D01*
X9694882Y6836614D02*
Y6879921D01*
X8440945Y6433071D02*
X8446457Y6438583D01*
X8516732Y6445866D02*
Y6547244D01*
X8446457Y6438583D02*
X8509449D01*
X8516732Y6445866D01*
X9562992Y6956693D02*
X9635827Y6883858D01*
X8602362Y6956693D02*
X9562992D01*
X8562992Y6917323D02*
X8602362Y6956693D01*
X8515748Y6775591D02*
X8516732Y6776575D01*
Y6838583D01*
X9635827Y6836614D02*
Y6883858D01*
X9570866Y6976378D02*
X9675197Y6872047D01*
X8588641Y6976378D02*
X9570866D01*
X8539370Y6927107D02*
X8588641Y6976378D01*
X8539370Y6841535D02*
Y6927107D01*
X8539370Y6841535D02*
X8542323Y6838583D01*
X9675197Y6836614D02*
Y6872047D01*
X9866142Y6704724D02*
X9952756D01*
X9864173Y6706693D02*
X9866142Y6704724D01*
X9952756Y6704724D02*
X9988189Y6669291D01*
X9996063Y6661417D02*
Y6669291D01*
X9996063Y6661417D02*
X10035433Y6622047D01*
X10145669D01*
X10153543Y6629921D01*
Y6681102D01*
X10216535D01*
X9988189Y6669291D02*
X9996063D01*
X9996063Y6606299D02*
Y6622047D01*
X9968504Y6649607D02*
X9996063Y6622047D01*
X9968504Y6649607D02*
Y6661557D01*
X9996063Y6606299D02*
X10035433D01*
X10059055Y6582677D01*
X10059055Y6523622D02*
Y6582677D01*
X9996063Y6492126D02*
X10019685D01*
X10023622Y6496063D01*
Y6507874D01*
X10039370Y6523622D01*
X10059055D01*
X9943053Y6687008D02*
X9968504Y6661557D01*
X9864173Y6687008D02*
X9943053D01*
X9633858Y6748032D02*
X9714567Y6667323D01*
X9864173D01*
X9532205Y7167563D02*
Y7195039D01*
X9532205Y7167563D02*
X9573783Y7125984D01*
X9629921D01*
X9511811Y7070866D02*
Y7147169D01*
X9532205Y7167563D01*
X9582205Y7245039D02*
Y7279055D01*
X9590551Y7287402D01*
X9545276Y6746063D02*
X9600394D01*
X9531496Y7245748D02*
X9532205Y7245039D01*
X9531496Y7245748D02*
Y7283465D01*
X9570866Y6838583D02*
X9572835Y6836614D01*
X9596457D01*
X10061024Y6864173D02*
Y6901575D01*
X10072835D01*
X9952756Y6901575D02*
X10061024D01*
X10072835Y6901575D02*
X10072835D01*
X10000000Y6803150D02*
X10061024Y6864173D01*
X9944882Y6803150D02*
X10000000D01*
X9933071Y6791339D02*
X9944882Y6803150D01*
X9933071Y6775591D02*
Y6791339D01*
X9903543Y6746063D02*
X9933071Y6775591D01*
X9864173Y6746063D02*
X9903543D01*
X9905512Y6834645D02*
Y6842520D01*
X9864173Y6793307D02*
X9905512Y6834645D01*
X9864173Y6785433D02*
Y6793307D01*
X9996063Y6767717D02*
X10053149D01*
X9952756Y6767717D02*
X9996063D01*
X10053149Y6767717D02*
X10061024Y6775591D01*
X9911417Y6726378D02*
X9952756Y6767717D01*
X9864173Y6726378D02*
X9911417D01*
X8397638Y6547244D02*
X8465551D01*
X8345472Y6495079D02*
X8397638Y6547244D01*
X8259843Y6495079D02*
X8345472D01*
X8222441Y6583661D02*
Y6616142D01*
X8228346Y6622047D01*
Y6651742D01*
X8228346D01*
Y6834646D01*
X9753937Y6836614D02*
Y6994094D01*
X8228346Y6834646D02*
X8433071Y7039370D01*
X9708661D01*
X9753937Y6994094D01*
X9734252Y6836614D02*
Y6903543D01*
X9720472Y6917323D02*
X9734252Y6903543D01*
X9720472Y6917323D02*
Y6956693D01*
D11*
X7200315Y5436535D02*
X7277008D01*
Y5506457D01*
X7277008Y5371496D02*
Y5436535D01*
X7408977D01*
X7524961Y5552520D01*
X7708110D01*
X9878976Y5122992D02*
Y5552520D01*
D12*
X8787402Y6267717D02*
X10118110D01*
X8695866Y6359252D02*
X8787402Y6267717D01*
X8695866Y6359252D02*
Y6547244D01*
X10118110Y6267717D02*
X10122047Y6263780D01*
X8795276Y6307087D02*
X10051181D01*
X8721457Y6380906D02*
X8795276Y6307087D01*
X8721457Y6380906D02*
Y6547244D01*
X10051181Y6307087D02*
X10055118Y6311024D01*
X7165354Y5645669D02*
X8059055Y6539370D01*
X7165354Y5204724D02*
Y5645669D01*
X7165354Y5204724D02*
X7173228Y5196850D01*
X8059055Y6539370D02*
X8318898D01*
X8567913Y6788386D01*
Y6838583D01*
X9838583Y6346457D02*
Y6354331D01*
X8799213Y6346457D02*
X9830709D01*
X8746045Y6399624D02*
X8799213Y6346457D01*
X8746045Y6399624D02*
Y6546242D01*
X8747047Y6547244D01*
X9830709Y6346457D02*
X9838583Y6354331D01*
X8641729Y6841539D02*
X8644685Y6838583D01*
X8641715Y6893687D02*
X8641729Y6893701D01*
X8173228Y6893701D02*
Y7047244D01*
X8641729Y6841539D02*
Y6893701D01*
X8616124Y6841553D02*
Y6915337D01*
X8618110Y6917323D01*
X8616124Y6841553D02*
X8619094Y6838583D01*
X8593504Y6838583D02*
Y6890717D01*
X8590534Y6893687D02*
X8593504Y6890717D01*
X8771636Y6456680D02*
X8772638Y6457682D01*
Y6547244D01*
X8798228Y6477362D02*
X8799213Y6476378D01*
X8798228Y6477362D02*
Y6547244D01*
X8846457Y6476378D02*
X8901575D01*
X8823819Y6499016D02*
X8846457Y6476378D01*
X8823819Y6499016D02*
Y6547244D01*
X9354331Y6547244D02*
X9358268Y6551181D01*
X8849409Y6547244D02*
X9354331D01*
X10366142Y6220472D02*
X10389764Y6244094D01*
X8670276Y6337598D02*
Y6547244D01*
X8670276Y6337598D02*
X8787402Y6220472D01*
X10366142D01*
X11129921Y6125984D02*
X11271654Y6267717D01*
X8619094Y6294291D02*
Y6547244D01*
X8619094Y6294291D02*
X8787402Y6125984D01*
X11129921D01*
X8862205Y6909449D02*
X9224409D01*
X8849409Y6896654D02*
X8862205Y6909449D01*
X8849409Y6838583D02*
Y6896654D01*
X8823819Y6901348D02*
Y6916339D01*
X8823819Y6901348D02*
X8824803Y6900364D01*
X8824803Y6839567D02*
Y6900364D01*
X8823819Y6838583D02*
X8824803Y6839567D01*
X8798228Y6888780D02*
X8799213Y6889764D01*
X8798228Y6838583D02*
Y6888780D01*
X8771654Y6917323D02*
X8773622Y6915354D01*
X8773622Y6839567D02*
Y6915354D01*
X8772638Y6838583D02*
X8773622Y6839567D01*
X8747047Y6888780D02*
X8748032Y6889764D01*
X8747047Y6838583D02*
Y6888780D01*
X8720472Y6917323D02*
X8722441Y6915354D01*
X8722441Y6839567D02*
Y6915354D01*
X8721457Y6838583D02*
X8722441Y6839567D01*
X8695866Y6890748D02*
X8696850Y6891732D01*
X8695866Y6838583D02*
Y6890748D01*
X8671260Y6839567D02*
Y6915354D01*
X8062992Y6897638D02*
Y7062992D01*
X8669291Y6917323D02*
X8671260Y6915354D01*
X8670276Y6838583D02*
X8671260Y6839567D01*
X8644685Y6315945D02*
Y6547244D01*
X8644685Y6315945D02*
X8787402Y6173228D01*
X10673228D01*
X10748032Y6248032D01*
X8593504Y6272638D02*
Y6547244D01*
X8593504Y6272638D02*
X8779528Y6086614D01*
X10755906D01*
X8567913Y6250984D02*
Y6547244D01*
X8567913Y6250984D02*
X8779528Y6039370D01*
X11279528D01*
G36*
X10259260Y6859653D02*
X10263780Y6857781D01*
X10314961D01*
X10319481Y6859653D01*
X10321353Y6864173D01*
Y6938976D01*
X10319481Y6943496D01*
X10314961Y6945368D01*
X10263780D01*
X10259260Y6943496D01*
X10257387Y6938976D01*
Y6864173D01*
X10104817D01*
Y6938976D01*
X10102945Y6943496D01*
X10098425Y6945368D01*
X10047244D01*
X10042724Y6943496D01*
X10040852Y6938976D01*
Y6911610D01*
X9976864D01*
Y6917323D01*
X9974992Y6921843D01*
X9970472Y6923715D01*
X9935039D01*
X9932133Y6922511D01*
X9930268Y6921991D01*
X9926408Y6924264D01*
X9925780Y6925780D01*
X9924478Y6930071D01*
X9926057Y6932435D01*
X9927750Y6940945D01*
X9926057Y6949455D01*
X9921237Y6956670D01*
X9914022Y6961490D01*
X9905512Y6963183D01*
X9897002Y6961490D01*
X9889787Y6956670D01*
X9884966Y6949455D01*
X9883273Y6940945D01*
X9884966Y6932435D01*
X9886546Y6930071D01*
X9885244Y6925780D01*
X9884935Y6925034D01*
X9879293Y6924478D01*
X9879257Y6924532D01*
X9875949Y6926743D01*
X9872047Y6927519D01*
X9864366D01*
Y6956693D01*
X9863602Y6960533D01*
X9861427Y6963789D01*
X9858171Y6965964D01*
X9854331Y6966728D01*
X9809408D01*
Y6972441D01*
X9808632Y6976343D01*
X9806422Y6979651D01*
X9803114Y6981861D01*
X9799213Y6982637D01*
X9788465D01*
Y6956693D01*
X9778465D01*
Y6982637D01*
X9767717D01*
X9763972Y6985710D01*
Y6994094D01*
X9763208Y6997935D01*
X9761033Y7001191D01*
X9715757Y7046466D01*
X9712502Y7048642D01*
X9708661Y7049405D01*
X9685432D01*
X9683915Y7054405D01*
X9685016Y7055141D01*
X9689837Y7062356D01*
X9691530Y7070866D01*
X9689837Y7079376D01*
X9685016Y7086591D01*
X9679327Y7090393D01*
Y7120021D01*
X9678563Y7123861D01*
X9676387Y7127117D01*
X9638928Y7164576D01*
X9635672Y7166752D01*
X9631832Y7167516D01*
X9594708D01*
X9592240Y7169983D01*
Y7176010D01*
X9597632Y7179613D01*
X9602361Y7186691D01*
X9604021Y7195039D01*
X9602777Y7201297D01*
X9607487Y7203248D01*
X9609535Y7200183D01*
X9612348Y7197370D01*
X9618859Y7193019D01*
X9622535Y7191496D01*
X9630216Y7189969D01*
X9631220D01*
X9632205Y7189773D01*
X9633190Y7189969D01*
X9634194D01*
X9641875Y7191496D01*
X9645550Y7193019D01*
X9652061Y7197370D01*
X9654874Y7200183D01*
X9659225Y7206694D01*
X9660748Y7210369D01*
X9662275Y7218050D01*
Y7222029D01*
X9660748Y7229709D01*
X9659225Y7233385D01*
X9654874Y7239896D01*
X9652061Y7242709D01*
X9645550Y7247060D01*
X9641875Y7248582D01*
X9634194Y7250110D01*
X9633190D01*
X9632205Y7250306D01*
X9631220Y7250110D01*
X9630216D01*
X9622535Y7248582D01*
X9618859Y7247060D01*
X9612348Y7242709D01*
X9609535Y7239896D01*
X9607487Y7236831D01*
X9602777Y7238782D01*
X9604021Y7245039D01*
X9602361Y7253388D01*
X9597632Y7260466D01*
X9596470Y7261243D01*
X9597525Y7266551D01*
X9599061Y7266856D01*
X9606276Y7271677D01*
X9611097Y7278891D01*
X9612790Y7287402D01*
X9611097Y7295912D01*
X9606276Y7303127D01*
X9599061Y7307947D01*
X9590551Y7309640D01*
X9582041Y7307947D01*
X9574826Y7303127D01*
X9570006Y7295912D01*
X9568313Y7287402D01*
X9570006Y7278891D01*
X9572169Y7275653D01*
Y7264069D01*
X9566778Y7260466D01*
X9562049Y7253388D01*
X9560388Y7245039D01*
X9562049Y7236691D01*
X9566778Y7229613D01*
X9573856Y7224883D01*
X9582205Y7223223D01*
X9590554Y7224883D01*
X9597632Y7229613D01*
X9599153Y7231890D01*
X9603662Y7229709D01*
X9602134Y7222029D01*
Y7218050D01*
X9603662Y7210370D01*
X9599153Y7208189D01*
X9597632Y7210466D01*
X9590554Y7215195D01*
X9582205Y7216856D01*
X9573856Y7215195D01*
X9566778Y7210466D01*
X9562049Y7203388D01*
X9560388Y7195039D01*
X9562049Y7186691D01*
X9566778Y7179613D01*
X9572169Y7176010D01*
Y7165827D01*
X9572933Y7161986D01*
X9575109Y7158731D01*
X9583455Y7150384D01*
X9586711Y7148209D01*
X9590551Y7147445D01*
X9613781D01*
X9615298Y7142445D01*
X9614196Y7141709D01*
X9610395Y7136020D01*
X9577940D01*
X9542590Y7171370D01*
X9542895Y7176448D01*
X9547632Y7179613D01*
X9552361Y7186691D01*
X9554021Y7195039D01*
X9552361Y7203388D01*
X9547632Y7210466D01*
X9540554Y7215195D01*
X9532205Y7216856D01*
X9523856Y7215195D01*
X9516778Y7210466D01*
X9512049Y7203388D01*
X9511841Y7202345D01*
X9506743D01*
X9506218Y7204986D01*
X9500583Y7213418D01*
X9492151Y7219052D01*
X9491408Y7219200D01*
X9490754Y7224428D01*
X9496450Y7228235D01*
X9501180Y7235313D01*
X9502840Y7243661D01*
X9501180Y7252010D01*
X9496450Y7259088D01*
X9489372Y7263818D01*
X9481024Y7265478D01*
X9472675Y7263818D01*
X9467275Y7260210D01*
X9463382Y7261626D01*
X9462300Y7262286D01*
X9462206Y7262378D01*
X9460748Y7269709D01*
X9459225Y7273385D01*
X9454874Y7279896D01*
X9452061Y7282709D01*
X9450931Y7283465D01*
X9509258D01*
X9510951Y7274954D01*
X9515771Y7267740D01*
X9517217Y7266773D01*
X9517218Y7260760D01*
X9516778Y7260466D01*
X9512049Y7253388D01*
X9510388Y7245039D01*
X9512049Y7236691D01*
X9516778Y7229613D01*
X9523856Y7224883D01*
X9532205Y7223223D01*
X9540554Y7224883D01*
X9547632Y7229613D01*
X9552361Y7236691D01*
X9554021Y7245039D01*
X9552361Y7253388D01*
X9547632Y7260466D01*
X9545725Y7261740D01*
Y7266740D01*
X9547221Y7267740D01*
X9552042Y7274954D01*
X9553734Y7283465D01*
X9552042Y7291975D01*
X9547221Y7299190D01*
X9540006Y7304010D01*
X9531496Y7305703D01*
X9522986Y7304010D01*
X9515771Y7299190D01*
X9510951Y7291975D01*
X9509258Y7283465D01*
X9450931D01*
X9445550Y7287060D01*
X9441875Y7288582D01*
X9434194Y7290110D01*
X9433190D01*
X9432205Y7290306D01*
X9431220Y7290110D01*
X9430216D01*
X9422535Y7288582D01*
X9418859Y7287060D01*
X9412348Y7282709D01*
X9409535Y7279896D01*
X9405184Y7273385D01*
X9403662Y7269709D01*
X9402134Y7262028D01*
Y7258050D01*
X9403662Y7250369D01*
X9405184Y7246694D01*
X9409535Y7240183D01*
X9412348Y7237370D01*
X9418859Y7233019D01*
X9422535Y7231496D01*
X9430216Y7229969D01*
X9431220D01*
X9432205Y7229773D01*
X9433190Y7229969D01*
X9434194D01*
X9441875Y7231496D01*
X9445550Y7233019D01*
X9452061Y7237370D01*
X9454874Y7240183D01*
X9460126Y7239042D01*
X9460868Y7235313D01*
X9465597Y7228235D01*
X9471835Y7224066D01*
X9472108Y7220836D01*
X9471641Y7218640D01*
X9463826Y7213418D01*
X9458192Y7204986D01*
X9457970Y7203872D01*
X9455895Y7202688D01*
X9452545Y7202226D01*
X9452061Y7202709D01*
X9445550Y7207060D01*
X9441875Y7208582D01*
X9434194Y7210110D01*
X9433190D01*
X9432205Y7210306D01*
X9431220Y7210110D01*
X9430216D01*
X9422535Y7208582D01*
X9418859Y7207060D01*
X9412348Y7202709D01*
X9409535Y7199896D01*
X9405184Y7193385D01*
X9403662Y7189709D01*
X9402134Y7182029D01*
Y7178050D01*
X9403662Y7170369D01*
X9405184Y7166694D01*
X9409535Y7160183D01*
X9412348Y7157370D01*
X9418859Y7153019D01*
X9422535Y7151496D01*
X9430216Y7149969D01*
X9431220D01*
X9432205Y7149773D01*
X9433190Y7149969D01*
X9434194D01*
X9441875Y7151496D01*
X9445550Y7153019D01*
X9452061Y7157370D01*
X9454874Y7160183D01*
X9459225Y7166694D01*
X9460748Y7170369D01*
X9461157Y7172430D01*
X9466713Y7174731D01*
X9472258Y7171026D01*
X9477205Y7170042D01*
Y7195039D01*
X9487205D01*
Y7170043D01*
X9492151Y7171026D01*
X9500583Y7176661D01*
X9506218Y7185093D01*
X9506743Y7187734D01*
X9511841D01*
X9512049Y7186691D01*
X9516778Y7179613D01*
X9521514Y7176448D01*
X9521820Y7171370D01*
X9504715Y7154265D01*
X9502540Y7151009D01*
X9501776Y7147169D01*
Y7093006D01*
X9496063D01*
X9491543Y7091134D01*
X9489671Y7086614D01*
Y7055118D01*
X9489966Y7054406D01*
X9486625Y7049405D01*
X8433071D01*
X8429231Y7048642D01*
X8425975Y7046466D01*
X8221250Y6841742D01*
X8219075Y6838486D01*
X8218311Y6834646D01*
Y6673882D01*
X8212598D01*
X8208079Y6672010D01*
X8206206Y6667490D01*
Y6635994D01*
X8208079Y6631474D01*
X8212598Y6629602D01*
X8214638D01*
X8216709Y6624602D01*
X8215345Y6623238D01*
X8213169Y6619982D01*
X8212406Y6616142D01*
Y6612691D01*
X8210630D01*
X8206110Y6610819D01*
X8204238Y6606299D01*
Y6561024D01*
X8206110Y6556504D01*
X8206330Y6556413D01*
X8205336Y6551412D01*
X8059056D01*
X8054447Y6550496D01*
X8050540Y6547885D01*
X7156839Y5654185D01*
X7154229Y5650278D01*
X7153312Y5645669D01*
Y5206302D01*
X7152683Y5205361D01*
X7150990Y5196850D01*
X6767558D01*
X7721267Y6622858D01*
X7721903Y6624390D01*
X7722791Y6626533D01*
X7722792Y6628118D01*
X7722793Y6630511D01*
X7722065Y6632271D01*
X7721273Y6634186D01*
X7545458Y6897638D01*
X8040754D01*
X8042447Y6889128D01*
X8047267Y6881913D01*
X8054482Y6877092D01*
X8062992Y6875399D01*
X8071502Y6877092D01*
X8078717Y6881913D01*
X8083538Y6889128D01*
X8084447Y6893701D01*
X8150990D01*
X8152683Y6885191D01*
X8157503Y6877976D01*
X8164718Y6873155D01*
X8173228Y6871463D01*
X8181739Y6873155D01*
X8188953Y6877976D01*
X8193774Y6885191D01*
X8195467Y6893701D01*
X8193774Y6902211D01*
X8188953Y6909426D01*
X8185271Y6911886D01*
Y7029059D01*
X8188953Y7031519D01*
X8193774Y7038734D01*
X8195467Y7047244D01*
X8193774Y7055754D01*
X8188953Y7062969D01*
X8181739Y7067790D01*
X8173228Y7069482D01*
X8164718Y7067790D01*
X8157503Y7062969D01*
X8152683Y7055754D01*
X8150990Y7047244D01*
X8152683Y7038734D01*
X8157503Y7031519D01*
X8161186Y7029059D01*
Y6911886D01*
X8157503Y6909426D01*
X8152683Y6902211D01*
X8150990Y6893701D01*
X8084447D01*
X8085230Y6897638D01*
X8083538Y6906148D01*
X8078717Y6913363D01*
X8075034Y6915823D01*
Y7044807D01*
X8078717Y7047267D01*
X8083538Y7054482D01*
X8085230Y7062992D01*
X8083538Y7071502D01*
X8078717Y7078717D01*
X8071502Y7083538D01*
X8062992Y7085230D01*
X8054482Y7083538D01*
X8047267Y7078717D01*
X8042447Y7071502D01*
X8040754Y7062992D01*
X8042447Y7054482D01*
X8047267Y7047267D01*
X8050950Y7044807D01*
Y6915823D01*
X8047267Y6913363D01*
X8042447Y6906148D01*
X8040754Y6897638D01*
X7545458D01*
X6733603Y8114173D01*
X7938623D01*
X7939399Y8110271D01*
X7941609Y8106964D01*
X7944917Y8104754D01*
X7948819Y8103977D01*
X7974331D01*
X7984331D01*
X8009843D01*
X8013744Y8104754D01*
X8017052Y8106964D01*
X8019262Y8110271D01*
X8020038Y8114173D01*
X8145316D01*
X8146092Y8110271D01*
X8148302Y8106964D01*
X8151610Y8104754D01*
X8155512Y8103977D01*
X8181024D01*
X8191024D01*
X8216535D01*
X8220437Y8104754D01*
X8223745Y8106964D01*
X8225955Y8110271D01*
X8226732Y8114173D01*
Y8128858D01*
X8191024D01*
Y8103977D01*
X8181024D01*
Y8128858D01*
X8145316D01*
Y8114173D01*
X8020038D01*
Y8128858D01*
X7984331D01*
Y8103977D01*
X7974331D01*
Y8128858D01*
X7938623D01*
Y8114173D01*
X6733603D01*
X6717130Y8138858D01*
X7938623D01*
X7974331D01*
X7984331D01*
X8020038D01*
X8145316D01*
X8181024D01*
X8191024D01*
X8226732D01*
Y8153543D01*
X8225955Y8157445D01*
X8223745Y8160753D01*
X8220437Y8162963D01*
X8216535Y8163739D01*
X8191024D01*
Y8138858D01*
X8181024D01*
Y8163739D01*
X8155512D01*
X8151610Y8162963D01*
X8148302Y8160753D01*
X8146092Y8157445D01*
X8145316Y8153543D01*
Y8138858D01*
X8020038D01*
Y8153543D01*
X8019262Y8157445D01*
X8017052Y8160753D01*
X8013744Y8162963D01*
X8009843Y8163739D01*
X7984331D01*
Y8138858D01*
X7974331D01*
Y8163739D01*
X7948819D01*
X7944917Y8162963D01*
X7941609Y8160753D01*
X7939399Y8157445D01*
X7938623Y8153543D01*
Y8138858D01*
X6717130D01*
X6649528Y8240157D01*
X7942427D01*
X7944299Y8235638D01*
X7948819Y8233765D01*
X8009843D01*
X8014362Y8235638D01*
X8016235Y8240157D01*
Y8249807D01*
X8149120D01*
Y8240157D01*
X8150992Y8235638D01*
X8155512Y8233765D01*
X8216535D01*
X8221055Y8235638D01*
X8222928Y8240157D01*
Y8249807D01*
X8412046D01*
X8412525Y8247395D01*
X8417346Y8240181D01*
X8424561Y8235360D01*
X8433071Y8233667D01*
X8441581Y8235360D01*
X8448796Y8240181D01*
X8453616Y8247395D01*
X8455309Y8255906D01*
X8453616Y8264416D01*
X8448796Y8271630D01*
X8441581Y8276451D01*
X8433071Y8278144D01*
X8424561Y8276451D01*
X8417346Y8271630D01*
X8416175Y8269878D01*
X8222928D01*
Y8279528D01*
X8221055Y8284047D01*
X8216535Y8285920D01*
X8155512D01*
X8150992Y8284047D01*
X8149120Y8279528D01*
Y8269878D01*
X8016235D01*
Y8279528D01*
X8014362Y8284047D01*
X8009843Y8285920D01*
X7948819D01*
X7944299Y8284047D01*
X7942427Y8279528D01*
Y8240157D01*
X6649528D01*
X6565519Y8366041D01*
X6567875Y8370451D01*
X8581210Y8372620D01*
X9259740Y7356566D01*
X9260451Y7355854D01*
X9261010Y7355018D01*
X9261844Y7354461D01*
X9262553Y7353752D01*
X9263482Y7353367D01*
X9264318Y7352808D01*
X9265301Y7352612D01*
X9266228Y7352228D01*
X9267233D01*
X9268219Y7352032D01*
X11489137D01*
X11489464Y5908348D01*
X10246190Y5907833D01*
X10245207Y5907637D01*
X10244205D01*
X10243275Y5907252D01*
X10242288Y5907056D01*
X10241455Y5906498D01*
X10240530Y5906115D01*
X10239818Y5905404D01*
X10238981Y5904844D01*
X10238425Y5904011D01*
X10237717Y5903303D01*
X10237332Y5902373D01*
X10236772Y5901535D01*
X10236577Y5900553D01*
X10236194Y5899627D01*
Y5898621D01*
X10235998Y5897633D01*
X10236194Y5896651D01*
Y5895649D01*
X10236579Y5894719D01*
X10236776Y5893732D01*
X10237332Y5892899D01*
X10237716Y5891973D01*
X10899342Y4901607D01*
X10896984Y4897197D01*
X6572456D01*
X6570100Y4901607D01*
X6651282Y5022992D01*
X7572914D01*
X7573690Y5019090D01*
X7575901Y5015782D01*
X7579208Y5013572D01*
X7583110Y5012796D01*
X7703110D01*
X7713110D01*
X7833110D01*
X7837012Y5013572D01*
X7840320Y5015782D01*
X7842530Y5019090D01*
X7843306Y5022992D01*
X9747584D01*
X9749457Y5018472D01*
X9753976Y5016600D01*
X10003976D01*
X10008496Y5018472D01*
X10010369Y5022992D01*
Y5222992D01*
X10008496Y5227512D01*
X10003976Y5229384D01*
X9904788D01*
Y5446128D01*
X10003976D01*
X10008496Y5448000D01*
X10010369Y5452520D01*
Y5652520D01*
X10008496Y5657040D01*
X10003976Y5658912D01*
X9753976D01*
X9749457Y5657040D01*
X9747584Y5652520D01*
Y5452520D01*
X9749457Y5448000D01*
X9753976Y5446128D01*
X9853165D01*
Y5229384D01*
X9753976D01*
X9749457Y5227512D01*
X9747584Y5222992D01*
Y5022992D01*
X7843306D01*
Y5117992D01*
X7713110D01*
Y5012796D01*
X7703110D01*
Y5117992D01*
X7572914D01*
Y5022992D01*
X6651282D01*
X6721506Y5127992D01*
X7572914D01*
X7703110D01*
X7713110D01*
X7843306D01*
Y5222992D01*
X7842530Y5226894D01*
X7840320Y5230202D01*
X7837012Y5232412D01*
X7833110Y5233188D01*
X7713110D01*
Y5127992D01*
X7703110D01*
Y5233188D01*
X7583110D01*
X7579208Y5232412D01*
X7575901Y5230202D01*
X7573690Y5226894D01*
X7572914Y5222992D01*
Y5127992D01*
X6721506D01*
X6731696Y5143228D01*
X7213662D01*
X7214439Y5139327D01*
X7216649Y5136019D01*
X7219957Y5133808D01*
X7223858Y5133032D01*
X7272008D01*
X7282008D01*
X7330157D01*
X7334059Y5133808D01*
X7337367Y5136019D01*
X7339577Y5139327D01*
X7340353Y5143228D01*
Y5179567D01*
X7282008D01*
Y5133032D01*
X7272008D01*
Y5179567D01*
X7213662D01*
Y5143228D01*
X6731696D01*
X6767558Y5196850D01*
X7150990D01*
X7152683Y5188340D01*
X7157503Y5181126D01*
X7164718Y5176305D01*
X7173228Y5174612D01*
X7181739Y5176305D01*
X7188953Y5181126D01*
X7193774Y5188340D01*
X7194018Y5189567D01*
X7213662D01*
X7272008D01*
X7282008D01*
X7340353D01*
Y5225906D01*
X7339577Y5229807D01*
X7337367Y5233115D01*
X7334059Y5235325D01*
X7330157Y5236101D01*
X7282008D01*
Y5189567D01*
X7272008D01*
Y5236101D01*
X7223858D01*
X7219957Y5235325D01*
X7216649Y5233115D01*
X7214439Y5229807D01*
X7213662Y5225906D01*
Y5189567D01*
X7194018D01*
X7195467Y5196850D01*
X7193774Y5205361D01*
X7188953Y5212575D01*
X7181739Y5217396D01*
X7177397Y5218259D01*
Y5416153D01*
X7180924Y5417764D01*
X7182397Y5418029D01*
X7187409Y5414182D01*
X7193634Y5411604D01*
X7200315Y5410724D01*
X7217466D01*
Y5395197D01*
X7219338Y5390677D01*
X7223858Y5388805D01*
X7251197D01*
Y5371496D01*
X7252076Y5364816D01*
X7254655Y5358590D01*
X7258757Y5353245D01*
X7264102Y5349143D01*
X7270327Y5346564D01*
X7277008Y5345685D01*
X7283688Y5346564D01*
X7289914Y5349143D01*
X7295259Y5353245D01*
X7299361Y5358590D01*
X7301940Y5364816D01*
X7302819Y5371496D01*
Y5388805D01*
X7330157D01*
X7334677Y5390677D01*
X7336550Y5395197D01*
Y5410724D01*
X7408977D01*
X7415657Y5411604D01*
X7421882Y5414182D01*
X7427228Y5418284D01*
X7535652Y5526708D01*
X7576718D01*
Y5452520D01*
X7578590Y5448000D01*
X7583110Y5446128D01*
X7833110D01*
X7837630Y5448000D01*
X7839502Y5452520D01*
Y5652520D01*
X7837630Y5657040D01*
X7833110Y5658912D01*
X7583110D01*
X7578590Y5657040D01*
X7576718Y5652520D01*
Y5578331D01*
X7524961D01*
X7518280Y5577452D01*
X7512055Y5574873D01*
X7506709Y5570771D01*
X7398285Y5462347D01*
X7336550D01*
Y5477874D01*
X7334677Y5482394D01*
X7330157Y5484266D01*
X7302819D01*
Y5506457D01*
X7301940Y5513137D01*
X7299361Y5519362D01*
X7295259Y5524708D01*
X7289914Y5528810D01*
X7283688Y5531389D01*
X7277008Y5532268D01*
X7270327Y5531389D01*
X7264102Y5528810D01*
X7258757Y5524708D01*
X7254655Y5519362D01*
X7252076Y5513137D01*
X7251197Y5506457D01*
Y5484266D01*
X7223858D01*
X7219338Y5482394D01*
X7217466Y5477874D01*
Y5462347D01*
X7200315D01*
X7193634Y5461467D01*
X7187409Y5458889D01*
X7182397Y5455042D01*
X7180924Y5455307D01*
X7177397Y5456918D01*
Y5640681D01*
X7269794Y5733079D01*
X9704158D01*
X9705511Y5722801D01*
X9705940Y5721538D01*
X9706200Y5720230D01*
X9710167Y5710653D01*
X9710908Y5709544D01*
X9711498Y5708348D01*
X9717808Y5700123D01*
X9718811Y5699244D01*
X9719691Y5698241D01*
X9727915Y5691931D01*
X9729111Y5691341D01*
X9730220Y5690600D01*
X9739797Y5686633D01*
X9741105Y5686373D01*
X9742368Y5685944D01*
X9752646Y5684591D01*
X9753317Y5684635D01*
X9753976Y5684504D01*
X9754636Y5684635D01*
X9755307Y5684591D01*
X9765585Y5685944D01*
X9766848Y5686373D01*
X9768156Y5686633D01*
X9777733Y5690600D01*
X9778842Y5691341D01*
X9780038Y5691931D01*
X9788262Y5698241D01*
X9789142Y5699244D01*
X9790144Y5700123D01*
X9796455Y5708348D01*
X9797045Y5709544D01*
X9797786Y5710653D01*
X9801753Y5720230D01*
X9802013Y5721538D01*
X9802442Y5722801D01*
X9803795Y5733079D01*
X9803708Y5734409D01*
X9803795Y5735740D01*
X9802442Y5746018D01*
X9802013Y5747281D01*
X9801753Y5748589D01*
X9797786Y5758166D01*
X9797045Y5759275D01*
X9796455Y5760471D01*
X9790144Y5768695D01*
X9789142Y5769575D01*
X9788262Y5770578D01*
X9780038Y5776888D01*
X9778842Y5777478D01*
X9777733Y5778219D01*
X9768156Y5782186D01*
X9766848Y5782446D01*
X9765585Y5782875D01*
X9755307Y5784228D01*
X9754636Y5784184D01*
X9753976Y5784315D01*
X9753317Y5784184D01*
X9752646Y5784228D01*
X9742368Y5782875D01*
X9741105Y5782446D01*
X9739797Y5782186D01*
X9730220Y5778219D01*
X9729111Y5777478D01*
X9727915Y5776888D01*
X9719691Y5770578D01*
X9718811Y5769575D01*
X9717808Y5768695D01*
X9711498Y5760471D01*
X9710908Y5759275D01*
X9710167Y5758166D01*
X9706200Y5748589D01*
X9705940Y5747281D01*
X9705511Y5746018D01*
X9704158Y5735740D01*
X9704245Y5734409D01*
X9704158Y5733079D01*
X7269794D01*
X7926479Y6389764D01*
X8462245D01*
X8463021Y6385862D01*
X8465232Y6382554D01*
X8468539Y6380344D01*
X8472441Y6379568D01*
X8483189D01*
X8493189D01*
X8503937D01*
X8507839Y6380344D01*
X8511147Y6382554D01*
X8513357Y6385862D01*
X8514133Y6389764D01*
Y6400512D01*
X8493189D01*
Y6379568D01*
X8483189D01*
Y6400512D01*
X8462245D01*
Y6389764D01*
X7926479D01*
X8064043Y6527328D01*
X8242737D01*
X8243732Y6522328D01*
X8243512Y6522236D01*
X8241639Y6517717D01*
Y6472441D01*
X8243512Y6467921D01*
X8248032Y6466049D01*
X8271654D01*
X8276173Y6467921D01*
X8278046Y6472441D01*
Y6485043D01*
X8345472D01*
X8349313Y6485807D01*
X8352568Y6487983D01*
X8401794Y6537209D01*
X8453254D01*
Y6511811D01*
X8455126Y6507291D01*
X8459646Y6505419D01*
X8471457D01*
X8475403Y6507054D01*
X8475977Y6507291D01*
X8476173D01*
X8481107Y6503032D01*
Y6490644D01*
X8472441D01*
X8467921Y6488772D01*
X8466049Y6484252D01*
Y6452756D01*
X8463284Y6448618D01*
X8456789D01*
X8456670Y6448796D01*
X8449455Y6453616D01*
X8440945Y6455309D01*
X8432435Y6453616D01*
X8425220Y6448796D01*
X8420399Y6441581D01*
X8418707Y6433071D01*
X8420399Y6424561D01*
X8425220Y6417346D01*
X8432435Y6412525D01*
X8440945Y6410833D01*
X8449455Y6412525D01*
X8456670Y6417346D01*
X8457245Y6418207D01*
X8462245Y6416690D01*
Y6410512D01*
X8514133D01*
Y6421260D01*
X8513357Y6425161D01*
X8513289Y6429311D01*
X8516545Y6431487D01*
X8523828Y6438770D01*
X8526004Y6442026D01*
X8526768Y6445866D01*
Y6503032D01*
X8531701Y6507291D01*
X8531897D01*
X8532471Y6507054D01*
X8536417Y6505419D01*
X8548228D01*
X8550871Y6506514D01*
X8555871Y6503881D01*
Y6250985D01*
X8556788Y6246376D01*
X8559398Y6242469D01*
X8771012Y6030855D01*
X8774919Y6028244D01*
X8779528Y6027328D01*
X11261342D01*
X11263803Y6023645D01*
X11271017Y6018825D01*
X11279528Y6017132D01*
X11288038Y6018825D01*
X11295253Y6023645D01*
X11300073Y6030860D01*
X11301766Y6039370D01*
X11300073Y6047880D01*
X11295253Y6055095D01*
X11288038Y6059916D01*
X11279528Y6061608D01*
X11271017Y6059916D01*
X11263803Y6055095D01*
X11261342Y6051413D01*
X8784516D01*
X8579956Y6255972D01*
Y6262655D01*
X8584956Y6264172D01*
X8584989Y6264122D01*
X8771012Y6078099D01*
X8774919Y6075489D01*
X8779528Y6074572D01*
X10737720D01*
X10740181Y6070889D01*
X10747395Y6066069D01*
X10755906Y6064376D01*
X10764416Y6066069D01*
X10771630Y6070889D01*
X10776451Y6078104D01*
X10778144Y6086614D01*
X10776451Y6095124D01*
X10771630Y6102339D01*
X10764416Y6107160D01*
X10755906Y6108853D01*
X10747395Y6107160D01*
X10740181Y6102339D01*
X10737720Y6098657D01*
X8784516D01*
X8605546Y6277626D01*
Y6284308D01*
X8610546Y6285825D01*
X8610579Y6285776D01*
X8778886Y6117469D01*
X8782793Y6114859D01*
X8787402Y6113942D01*
X11129921D01*
X11134530Y6114859D01*
X11138437Y6117469D01*
X11267310Y6246342D01*
X11271654Y6245478D01*
X11280164Y6247171D01*
X11287378Y6251992D01*
X11292199Y6259206D01*
X11293892Y6267717D01*
X11292199Y6276227D01*
X11287378Y6283441D01*
X11280164Y6288262D01*
X11271654Y6289955D01*
X11263143Y6288262D01*
X11255929Y6283441D01*
X11251108Y6276227D01*
X11249415Y6267717D01*
X11250279Y6263373D01*
X11124933Y6138027D01*
X8792390D01*
X8631137Y6299280D01*
Y6305962D01*
X8636137Y6307479D01*
X8636170Y6307430D01*
X8778886Y6164713D01*
X8782793Y6162103D01*
X8787402Y6161186D01*
X10673228D01*
X10677837Y6162103D01*
X10681744Y6164713D01*
X10743688Y6226657D01*
X10748032Y6225793D01*
X10756542Y6227486D01*
X10763757Y6232307D01*
X10768577Y6239521D01*
X10770270Y6248032D01*
X10768577Y6256542D01*
X10763757Y6263757D01*
X10756542Y6268577D01*
X10748032Y6270270D01*
X10739521Y6268577D01*
X10732307Y6263757D01*
X10727486Y6256542D01*
X10725793Y6248032D01*
X10726657Y6243688D01*
X10668240Y6185271D01*
X8792390D01*
X8656728Y6320933D01*
Y6327615D01*
X8661728Y6329132D01*
X8661760Y6329083D01*
X8778886Y6211957D01*
X8782793Y6209347D01*
X8787402Y6208430D01*
X10366141D01*
X10370750Y6209347D01*
X10374657Y6211957D01*
X10385420Y6222720D01*
X10389764Y6221856D01*
X10398274Y6223549D01*
X10405489Y6228370D01*
X10410309Y6235584D01*
X10412002Y6244094D01*
X10410309Y6252605D01*
X10405489Y6259819D01*
X10398274Y6264640D01*
X10389764Y6266333D01*
X10381254Y6264640D01*
X10374039Y6259819D01*
X10369218Y6252605D01*
X10367526Y6244094D01*
X10368390Y6239751D01*
X10361154Y6232515D01*
X8792390D01*
X8682318Y6342587D01*
Y6349269D01*
X8687318Y6350786D01*
X8687351Y6350737D01*
X8778886Y6259201D01*
X8782793Y6256591D01*
X8787402Y6255674D01*
X10101421D01*
X10101502Y6255269D01*
X10106322Y6248055D01*
X10113537Y6243234D01*
X10122047Y6241541D01*
X10130557Y6243234D01*
X10137772Y6248055D01*
X10142593Y6255269D01*
X10144285Y6263780D01*
X10142593Y6272290D01*
X10137772Y6279504D01*
X10130557Y6284325D01*
X10122047Y6286018D01*
X10113537Y6284325D01*
X10106703Y6279759D01*
X8792390D01*
X8707909Y6364240D01*
Y6370922D01*
X8712909Y6372439D01*
X8712941Y6372390D01*
X8786760Y6298571D01*
X8790667Y6295961D01*
X8795276Y6295044D01*
X10039774D01*
X10046608Y6290478D01*
X10055118Y6288785D01*
X10063628Y6290478D01*
X10070843Y6295299D01*
X10075664Y6302513D01*
X10077357Y6311024D01*
X10075664Y6319534D01*
X10070843Y6326748D01*
X10063628Y6331569D01*
X10055118Y6333262D01*
X10046608Y6331569D01*
X10039393Y6326748D01*
X10034573Y6319534D01*
X10034492Y6319129D01*
X8800264D01*
X8735441Y6383952D01*
X8735251Y6385268D01*
X8735498Y6386070D01*
X8741160Y6387479D01*
X8790697Y6337941D01*
X8794604Y6335331D01*
X8799213Y6334414D01*
X9820397D01*
X9822858Y6330732D01*
X9830072Y6325911D01*
X9838583Y6324218D01*
X9847093Y6325911D01*
X9854308Y6330732D01*
X9859128Y6337946D01*
X9860821Y6346457D01*
X9859128Y6354967D01*
X9854308Y6362182D01*
X9847093Y6367002D01*
X9838583Y6368695D01*
X9830072Y6367002D01*
X9822858Y6362182D01*
X9820397Y6358499D01*
X8804201D01*
X8758088Y6404612D01*
Y6434197D01*
X8762497Y6436554D01*
X8763126Y6436134D01*
X8771636Y6434442D01*
X8780146Y6436134D01*
X8781454Y6437008D01*
X9523269D01*
X9524045Y6433106D01*
X9526255Y6429798D01*
X9529563Y6427588D01*
X9533465Y6426812D01*
X9546181D01*
X9556181D01*
X9568898D01*
X9572799Y6427588D01*
X9576107Y6429798D01*
X9578318Y6433106D01*
X9579094Y6437008D01*
Y6447756D01*
X9556181D01*
Y6426812D01*
X9546181D01*
Y6447756D01*
X9523269D01*
Y6437008D01*
X8781454D01*
X8787361Y6440955D01*
X8792182Y6448170D01*
X8793591Y6455258D01*
X8799213Y6454140D01*
X8807723Y6455832D01*
X8814937Y6460653D01*
X8819758Y6467868D01*
X8821451Y6476378D01*
X8821226Y6477507D01*
X8825834Y6479970D01*
X8837941Y6467863D01*
X8841848Y6465252D01*
X8846457Y6464336D01*
X8883389D01*
X8885850Y6460653D01*
X8893065Y6455832D01*
X8901575Y6454140D01*
X8910085Y6455832D01*
X8912964Y6457756D01*
X9523269D01*
X9546181D01*
X9556181D01*
X9579094D01*
Y6468504D01*
X9578318Y6472406D01*
X9576107Y6475714D01*
X9572799Y6477924D01*
X9568898Y6478700D01*
X9556181D01*
Y6457756D01*
X9546181D01*
Y6478700D01*
X9533465D01*
X9529563Y6477924D01*
X9526255Y6475714D01*
X9524045Y6472406D01*
X9523269Y6468504D01*
Y6457756D01*
X8912964D01*
X8917300Y6460653D01*
X8922120Y6467868D01*
X8923813Y6476378D01*
X8922120Y6484888D01*
X8917300Y6492103D01*
X8910085Y6496923D01*
X8901575Y6498616D01*
X8893065Y6496923D01*
X8885850Y6492103D01*
X8883389Y6488420D01*
X8851445D01*
X8838754Y6501111D01*
X8838998Y6501873D01*
X8843504Y6505419D01*
X8855315D01*
X8859835Y6507291D01*
X8860076Y6507874D01*
X9485636D01*
X9487329Y6499364D01*
X9492149Y6492149D01*
X9499364Y6487329D01*
X9507874Y6485636D01*
X9516384Y6487329D01*
X9522396Y6491345D01*
X9522528Y6491367D01*
X9526815Y6490443D01*
X9528039Y6489794D01*
X9528945Y6487606D01*
X9533465Y6485734D01*
X9568898D01*
X9573418Y6487606D01*
X9575290Y6492126D01*
Y6507681D01*
X9584414D01*
Y6488189D01*
X9585331Y6483581D01*
X9587941Y6479674D01*
X9591848Y6477063D01*
X9596457Y6476147D01*
X9601065Y6477063D01*
X9603403Y6478625D01*
X9604674Y6476722D01*
X9609936Y6473207D01*
X9611142Y6472967D01*
X9621142D01*
X9622348Y6473207D01*
X9627609Y6476722D01*
X9628881Y6478625D01*
X9631218Y6477063D01*
X9635827Y6476147D01*
X9640435Y6477063D01*
X9644342Y6479674D01*
X9646997D01*
X9650903Y6477063D01*
X9655512Y6476147D01*
X9660120Y6477063D01*
X9664027Y6479674D01*
X9666682D01*
X9670588Y6477063D01*
X9675197Y6476147D01*
X9679805Y6477063D01*
X9683712Y6479674D01*
X9686367D01*
X9690273Y6477063D01*
X9694882Y6476147D01*
X9699490Y6477063D01*
X9703397Y6479674D01*
X9706052D01*
X9709958Y6477063D01*
X9714567Y6476147D01*
X9719175Y6477063D01*
X9723082Y6479674D01*
X9725737D01*
X9729644Y6477063D01*
X9734252Y6476147D01*
X9738860Y6477063D01*
X9742767Y6479674D01*
X9745422D01*
X9749329Y6477063D01*
X9753937Y6476147D01*
X9758545Y6477063D01*
X9762452Y6479674D01*
X9765107D01*
X9769014Y6477063D01*
X9773622Y6476147D01*
X9778230Y6477063D01*
X9782137Y6479674D01*
X9784792D01*
X9787038Y6478173D01*
X9787643Y6472564D01*
X9787425Y6472418D01*
X9782604Y6465203D01*
X9780911Y6456693D01*
X9782604Y6448183D01*
X9787425Y6440968D01*
X9794639Y6436147D01*
X9803150Y6434455D01*
X9811660Y6436147D01*
X9818874Y6440968D01*
X9822676Y6446658D01*
X9850394D01*
X9854234Y6447421D01*
X9857490Y6449597D01*
X9882109Y6474217D01*
X9903057D01*
Y6452756D01*
X9904929Y6448236D01*
X9909449Y6446364D01*
X9940945D01*
X9945465Y6448236D01*
X9947337Y6452756D01*
Y6484252D01*
X9946772Y6485617D01*
X9946279Y6488092D01*
X9944104Y6491348D01*
X9940848Y6493523D01*
X9937008Y6494287D01*
X9877953D01*
X9874112Y6493523D01*
X9870857Y6491348D01*
X9846237Y6466728D01*
X9822676D01*
X9818874Y6472418D01*
X9818657Y6472564D01*
X9819261Y6478173D01*
X9821507Y6479674D01*
X9824118Y6483581D01*
X9825034Y6488189D01*
Y6547244D01*
X9824118Y6551853D01*
X9821507Y6555759D01*
X9817601Y6558370D01*
X9812992Y6559286D01*
X9808384Y6558370D01*
X9804477Y6555759D01*
X9801822D01*
X9797916Y6558370D01*
X9793307Y6559286D01*
X9788699Y6558370D01*
X9784792Y6555759D01*
X9782137D01*
X9778230Y6558370D01*
X9773622Y6559286D01*
X9769014Y6558370D01*
X9765107Y6555759D01*
X9762452D01*
X9758545Y6558370D01*
X9753937Y6559286D01*
X9749329Y6558370D01*
X9745422Y6555759D01*
X9742767D01*
X9738860Y6558370D01*
X9734252Y6559286D01*
X9729644Y6558370D01*
X9725737Y6555759D01*
X9723082D01*
X9719175Y6558370D01*
X9714567Y6559286D01*
X9709958Y6558370D01*
X9706052Y6555759D01*
X9703397D01*
X9699490Y6558370D01*
X9694882Y6559286D01*
X9690273Y6558370D01*
X9686367Y6555759D01*
X9683712D01*
X9679805Y6558370D01*
X9675197Y6559286D01*
X9670588Y6558370D01*
X9666682Y6555759D01*
X9664027D01*
X9660120Y6558370D01*
X9655512Y6559286D01*
X9650903Y6558370D01*
X9646997Y6555759D01*
X9644342D01*
X9640435Y6558370D01*
X9635827Y6559286D01*
X9631218Y6558370D01*
X9628881Y6556808D01*
X9627609Y6558711D01*
X9622348Y6562227D01*
X9621142Y6562467D01*
Y6472967D01*
X9611142D01*
Y6562467D01*
X9609936Y6562227D01*
X9604674Y6558711D01*
X9603403Y6556808D01*
X9601065Y6558370D01*
X9596457Y6559286D01*
X9591848Y6558370D01*
X9587941Y6555759D01*
X9585331Y6551853D01*
X9584414Y6547244D01*
Y6527752D01*
X9573579D01*
X9573418Y6528142D01*
X9568898Y6530014D01*
X9533465D01*
X9528945Y6528142D01*
X9528039Y6525954D01*
X9526815Y6525305D01*
X9522528Y6524381D01*
X9522396Y6524403D01*
X9516384Y6528419D01*
X9507874Y6530112D01*
X9499364Y6528419D01*
X9492149Y6523599D01*
X9487329Y6516384D01*
X9485636Y6507874D01*
X8860076D01*
X8861707Y6511811D01*
Y6535202D01*
X9342924D01*
X9349757Y6530636D01*
X9358268Y6528943D01*
X9366778Y6530636D01*
X9373993Y6535456D01*
X9378813Y6542671D01*
X9380506Y6551181D01*
X9378813Y6559691D01*
X9373993Y6566906D01*
X9366778Y6571727D01*
X9358268Y6573419D01*
X9349757Y6571727D01*
X9342543Y6566906D01*
X9337722Y6559691D01*
X9337642Y6559286D01*
X8861707D01*
Y6582677D01*
X8859835Y6587197D01*
X8855315Y6589069D01*
X8843504D01*
X8839558Y6587435D01*
X8838984Y6587197D01*
X8834244D01*
X8833670Y6587435D01*
X8829724Y6589069D01*
X8817913D01*
X8813394Y6587197D01*
X8808654D01*
X8804134Y6589069D01*
X8792323D01*
X8787803Y6587197D01*
X8783063D01*
X8778543Y6589069D01*
X8766732D01*
X8762213Y6587197D01*
X8757473D01*
X8752953Y6589069D01*
X8741142D01*
X8737196Y6587435D01*
X8736622Y6587197D01*
X8731882D01*
X8731308Y6587435D01*
X8727362Y6589069D01*
X8715551D01*
X8711605Y6587435D01*
X8711031Y6587197D01*
X8706292D01*
X8705718Y6587435D01*
X8701772Y6589069D01*
X8689961D01*
X8686015Y6587435D01*
X8685441Y6587197D01*
X8680701D01*
X8680127Y6587435D01*
X8676181Y6589069D01*
X8664370D01*
X8660424Y6587435D01*
X8659850Y6587197D01*
X8655110D01*
X8654537Y6587435D01*
X8650591Y6589069D01*
X8638780D01*
X8634833Y6587435D01*
X8634260Y6587197D01*
X8629520D01*
X8628946Y6587435D01*
X8625000Y6589069D01*
X8613189D01*
X8609243Y6587435D01*
X8608669Y6587197D01*
X8603929D01*
X8603356Y6587435D01*
X8599409Y6589069D01*
X8587598D01*
X8583652Y6587435D01*
X8583079Y6587197D01*
X8578339D01*
X8577765Y6587435D01*
X8573819Y6589069D01*
X8562008D01*
X8558062Y6587435D01*
X8557488Y6587197D01*
X8552748D01*
X8552174Y6587435D01*
X8548228Y6589069D01*
X8536417D01*
X8532471Y6587435D01*
X8531897Y6587197D01*
X8527158D01*
X8526584Y6587435D01*
X8522638Y6589069D01*
X8510827D01*
X8506307Y6587197D01*
X8501567D01*
X8497047Y6589069D01*
X8485236D01*
X8481290Y6587435D01*
X8480716Y6587197D01*
X8475977D01*
X8475403Y6587435D01*
X8471457Y6589069D01*
X8459646D01*
X8455126Y6587197D01*
X8453254Y6582677D01*
Y6557279D01*
X8397638D01*
X8393797Y6556516D01*
X8390542Y6554340D01*
X8341316Y6505114D01*
X8278046D01*
Y6517717D01*
X8276173Y6522236D01*
X8275953Y6522328D01*
X8276948Y6527328D01*
X8318897D01*
X8323506Y6528244D01*
X8327413Y6530855D01*
X8408566Y6612008D01*
X8561458D01*
X8562234Y6608106D01*
X8564444Y6604798D01*
X8567752Y6602588D01*
X8571654Y6601812D01*
X8652480D01*
X8662480D01*
X8743307D01*
X8747209Y6602588D01*
X8750517Y6604798D01*
X8752727Y6608106D01*
X8753503Y6612008D01*
Y6687913D01*
X8662480D01*
Y6601812D01*
X8652480D01*
Y6687913D01*
X8561458D01*
Y6612008D01*
X8408566D01*
X8556838Y6760280D01*
X8561458Y6758367D01*
Y6697913D01*
X8652480D01*
X8662480D01*
X8753503D01*
Y6773819D01*
X8752727Y6777721D01*
X8750517Y6781029D01*
X8747209Y6783239D01*
X8743307Y6784015D01*
X8662480D01*
Y6697913D01*
X8652480D01*
Y6784015D01*
X8583027D01*
X8579855Y6787880D01*
X8579956Y6788386D01*
Y6795220D01*
X8584956Y6797852D01*
X8587598Y6796758D01*
X8599409D01*
X8603929Y6798630D01*
X8608669D01*
X8613189Y6796758D01*
X8625000D01*
X8629520Y6798630D01*
X8634260D01*
X8638780Y6796758D01*
X8650591D01*
X8655110Y6798630D01*
X8659850D01*
X8664370Y6796758D01*
X8676181D01*
X8680701Y6798630D01*
X8685441D01*
X8689961Y6796758D01*
X8701772D01*
X8706292Y6798630D01*
X8711032D01*
X8715551Y6796758D01*
X8727362D01*
X8731882Y6798630D01*
X8736622D01*
X8741142Y6796758D01*
X8752953D01*
X8757473Y6798630D01*
X8762213D01*
X8766732Y6796758D01*
X8778543D01*
X8783063Y6798630D01*
X8787803D01*
X8792323Y6796758D01*
X8804134D01*
X8808654Y6798630D01*
X8813394D01*
X8817913Y6796758D01*
X8829724D01*
X8834244Y6798630D01*
X8838984D01*
X8843504Y6796758D01*
X8855315D01*
X8859835Y6798630D01*
X8861707Y6803150D01*
Y6805118D01*
X9446497D01*
X9447273Y6801216D01*
X9449483Y6797908D01*
X9452791Y6795698D01*
X9456693Y6794922D01*
X9467441D01*
X9477441D01*
X9488189D01*
X9492091Y6795698D01*
X9495399Y6797908D01*
X9497609Y6801216D01*
X9498385Y6805118D01*
Y6817834D01*
X9477441D01*
Y6794922D01*
X9467441D01*
Y6817834D01*
X9446497D01*
Y6805118D01*
X8861707D01*
Y6874016D01*
X8861452Y6874632D01*
Y6891665D01*
X8867193Y6897407D01*
X9206224D01*
X9208684Y6893724D01*
X9215899Y6888903D01*
X9224409Y6887210D01*
X9232920Y6888903D01*
X9240134Y6893724D01*
X9244955Y6900939D01*
X9246648Y6909449D01*
X9244955Y6917959D01*
X9240134Y6925174D01*
X9232920Y6929994D01*
X9224409Y6931687D01*
X9215899Y6929994D01*
X9208684Y6925174D01*
X9206224Y6921491D01*
X8862205D01*
X8857596Y6920574D01*
X8853689Y6917964D01*
X8850445Y6914720D01*
X8845881Y6917226D01*
X8844364Y6924849D01*
X8839544Y6932063D01*
X8832329Y6936884D01*
X8823819Y6938577D01*
X8815309Y6936884D01*
X8808094Y6932063D01*
X8803273Y6924849D01*
X8801581Y6916339D01*
X8797940Y6913882D01*
X8793892Y6917323D01*
X8792199Y6925833D01*
X8787378Y6933048D01*
X8780164Y6937868D01*
X8771654Y6939561D01*
X8763143Y6937868D01*
X8755929Y6933048D01*
X8751108Y6925833D01*
X8749415Y6917323D01*
X8746025Y6914506D01*
X8742711Y6917323D01*
X8741018Y6925833D01*
X8736197Y6933048D01*
X8728983Y6937868D01*
X8720472Y6939561D01*
X8711962Y6937868D01*
X8704747Y6933048D01*
X8699927Y6925833D01*
X8698516Y6918737D01*
X8698116Y6917593D01*
X8696270Y6917171D01*
X8696182Y6917174D01*
X8690827Y6920855D01*
X8689837Y6925833D01*
X8685016Y6933048D01*
X8677802Y6937868D01*
X8669291Y6939561D01*
X8660781Y6937868D01*
X8653566Y6933048D01*
X8648746Y6925833D01*
X8647501Y6919574D01*
X8645409Y6918298D01*
X8639961Y6919997D01*
X8639692Y6920621D01*
X8638656Y6925833D01*
X8633835Y6933048D01*
X8626620Y6937868D01*
X8618110Y6939561D01*
X8609600Y6937868D01*
X8602385Y6933048D01*
X8597565Y6925833D01*
X8595872Y6917323D01*
X8593821Y6915272D01*
X8590534Y6915925D01*
X8589627Y6915745D01*
X8585115Y6919539D01*
X8584610Y6924749D01*
X8606519Y6946658D01*
X9558835D01*
X9622223Y6883270D01*
X9621973Y6882006D01*
X9616182Y6878176D01*
X9616142Y6878184D01*
X9611533Y6877267D01*
X9607627Y6874657D01*
X9604972D01*
X9601065Y6877267D01*
X9596457Y6878184D01*
X9591848Y6877267D01*
X9587941Y6874657D01*
X9585331Y6870750D01*
X9584414Y6866142D01*
Y6861065D01*
X9580005Y6858708D01*
X9579376Y6859128D01*
X9570866Y6860821D01*
X9562356Y6859128D01*
X9555141Y6854308D01*
X9551129Y6848302D01*
X9549806Y6847008D01*
X9545049Y6846221D01*
X9543307Y6846943D01*
X9537594D01*
Y6858268D01*
X9536831Y6862108D01*
X9534655Y6865364D01*
X9518907Y6881112D01*
X9515652Y6883287D01*
X9511811Y6884051D01*
X9507716D01*
X9503914Y6889741D01*
X9496699Y6894561D01*
X9488189Y6896254D01*
X9479679Y6894561D01*
X9472464Y6889741D01*
X9467644Y6882526D01*
X9465951Y6874016D01*
X9467644Y6865506D01*
X9472464Y6858291D01*
X9476271Y6855747D01*
X9474755Y6850747D01*
X9456693D01*
X9452791Y6849971D01*
X9449483Y6847761D01*
X9447273Y6844453D01*
X9446497Y6840551D01*
Y6827834D01*
X9472441D01*
X9498385D01*
Y6840551D01*
X9497609Y6844453D01*
X9495399Y6847761D01*
X9494992Y6848032D01*
X9496047Y6853341D01*
X9496699Y6853470D01*
X9503914Y6858291D01*
X9505502Y6860667D01*
X9510478Y6861157D01*
X9517524Y6854111D01*
Y6846943D01*
X9511811D01*
X9507291Y6845071D01*
X9505419Y6840551D01*
Y6805118D01*
X9507291Y6800598D01*
X9507843Y6800369D01*
X9508399Y6794727D01*
X9507233Y6793948D01*
X9504622Y6790042D01*
X9503706Y6785433D01*
X9504622Y6780825D01*
X9506184Y6778487D01*
X9504281Y6777215D01*
X9500766Y6771954D01*
X9500526Y6770748D01*
X9545275D01*
Y6760748D01*
X9500526D01*
X9500766Y6759542D01*
X9504281Y6754281D01*
X9506184Y6753009D01*
X9504622Y6750671D01*
X9503706Y6746063D01*
X9504622Y6741455D01*
X9507233Y6737548D01*
Y6734893D01*
X9504622Y6730986D01*
X9503706Y6726378D01*
X9504622Y6721770D01*
X9507233Y6717863D01*
Y6715208D01*
X9504622Y6711301D01*
X9503706Y6706693D01*
X9504622Y6702084D01*
X9507233Y6698178D01*
Y6695523D01*
X9504622Y6691616D01*
X9503706Y6687008D01*
X9504622Y6682399D01*
X9507233Y6678493D01*
Y6675838D01*
X9504622Y6671931D01*
X9503706Y6667323D01*
X9504622Y6662715D01*
X9507233Y6658808D01*
Y6656153D01*
X9504622Y6652246D01*
X9503706Y6647638D01*
X9504622Y6643029D01*
X9507233Y6639123D01*
Y6636468D01*
X9504622Y6632561D01*
X9503706Y6627953D01*
X9504622Y6623344D01*
X9507233Y6619438D01*
Y6616783D01*
X9504622Y6612876D01*
X9503706Y6608268D01*
X9504622Y6603659D01*
X9507233Y6599753D01*
Y6597098D01*
X9504622Y6593191D01*
X9503706Y6588583D01*
X9504622Y6583974D01*
X9507233Y6580068D01*
Y6577413D01*
X9504622Y6573506D01*
X9503706Y6568898D01*
X9504622Y6564289D01*
X9507233Y6560382D01*
X9511140Y6557772D01*
X9515748Y6556855D01*
X9574803D01*
X9579411Y6557772D01*
X9583318Y6560382D01*
X9585929Y6564289D01*
X9586845Y6568898D01*
X9585929Y6573506D01*
X9583318Y6577413D01*
Y6580068D01*
X9585929Y6583974D01*
X9586845Y6588583D01*
X9585929Y6593191D01*
X9583318Y6597098D01*
Y6599753D01*
X9585929Y6603659D01*
X9586845Y6608268D01*
X9585929Y6612876D01*
X9583318Y6616783D01*
Y6619438D01*
X9585929Y6623344D01*
X9586845Y6627953D01*
X9585929Y6632561D01*
X9583318Y6636468D01*
Y6639123D01*
X9585929Y6643029D01*
X9586845Y6647638D01*
X9585929Y6652246D01*
X9583318Y6656153D01*
Y6658808D01*
X9585929Y6662715D01*
X9586845Y6667323D01*
X9585929Y6671931D01*
X9583318Y6675838D01*
Y6678493D01*
X9585929Y6682399D01*
X9586845Y6687008D01*
X9585929Y6691616D01*
X9583318Y6695523D01*
Y6698178D01*
X9585929Y6702084D01*
X9586845Y6706693D01*
X9585929Y6711301D01*
X9583318Y6715208D01*
Y6717863D01*
X9585929Y6721770D01*
X9586230Y6723282D01*
X9591703Y6725638D01*
X9591883Y6725518D01*
X9600394Y6723825D01*
X9608904Y6725518D01*
X9616119Y6730338D01*
X9621123Y6730309D01*
X9625348Y6727486D01*
X9633858Y6725793D01*
X9640570Y6727128D01*
X9707471Y6660227D01*
X9710727Y6658052D01*
X9714567Y6657288D01*
X9816408D01*
X9819147Y6652638D01*
X9864173D01*
Y6642638D01*
X9819423D01*
X9819663Y6641432D01*
X9823179Y6636171D01*
X9825082Y6634899D01*
X9823520Y6632561D01*
X9822792Y6628899D01*
X9821589Y6627997D01*
X9820153Y6627326D01*
X9817752Y6626711D01*
X9811660Y6630782D01*
X9803150Y6632474D01*
X9794639Y6630782D01*
X9787425Y6625961D01*
X9782604Y6618746D01*
X9780911Y6610236D01*
X9782604Y6601726D01*
X9787425Y6594511D01*
X9794639Y6589691D01*
X9803150Y6587998D01*
X9811660Y6589691D01*
X9818824Y6594477D01*
X9819074Y6594406D01*
X9823314Y6592156D01*
X9822603Y6588583D01*
X9823520Y6583974D01*
X9826130Y6580068D01*
Y6577413D01*
X9823520Y6573506D01*
X9822603Y6568898D01*
X9823520Y6564289D01*
X9826130Y6560382D01*
X9830037Y6557772D01*
X9834646Y6556855D01*
X9878706D01*
X9881034Y6552224D01*
X9880975Y6551855D01*
X9874039Y6547221D01*
X9869218Y6540006D01*
X9867526Y6531496D01*
X9869218Y6522986D01*
X9874039Y6515771D01*
X9881254Y6510951D01*
X9889764Y6509258D01*
X9898274Y6510951D01*
X9900638Y6512530D01*
X9904929Y6511228D01*
X9909449Y6509356D01*
X9940945D01*
X9943626Y6510467D01*
X9948626Y6507857D01*
Y6505626D01*
X9949390Y6501786D01*
X9951565Y6498530D01*
X9954821Y6496355D01*
X9958661Y6495591D01*
X9962502Y6496355D01*
X9965757Y6498530D01*
X9966954Y6500321D01*
X9971954Y6498804D01*
Y6476378D01*
X9973827Y6471858D01*
X9978346Y6469986D01*
X10013779D01*
X10018299Y6471858D01*
X10020171Y6476378D01*
Y6482187D01*
X10023525Y6482855D01*
X10025337Y6484065D01*
X10030913Y6483669D01*
X10035433Y6481797D01*
X10082677D01*
X10087197Y6483669D01*
X10089069Y6488189D01*
X10123529D01*
X10125401Y6483669D01*
X10129921Y6481797D01*
X10177165D01*
X10181685Y6483669D01*
X10183557Y6488189D01*
Y6559055D01*
X10181685Y6563575D01*
X10177165Y6565447D01*
X10129921D01*
X10125401Y6563575D01*
X10123529Y6559055D01*
Y6488189D01*
X10089069D01*
Y6559055D01*
X10087197Y6563575D01*
X10082677Y6565447D01*
X10069090D01*
Y6582677D01*
X10068327Y6586518D01*
X10066151Y6589773D01*
X10048532Y6607393D01*
X10049710Y6610236D01*
X10188623D01*
X10189399Y6606334D01*
X10191609Y6603027D01*
X10194917Y6600817D01*
X10198819Y6600040D01*
X10211535D01*
X10221535D01*
X10234252D01*
X10238154Y6600817D01*
X10241462Y6603027D01*
X10243672Y6606334D01*
X10244448Y6610236D01*
Y6620984D01*
X10221535D01*
Y6600040D01*
X10211535D01*
Y6620984D01*
X10188623D01*
Y6610236D01*
X10049710D01*
X10050445Y6612012D01*
X10145669D01*
X10149510Y6612776D01*
X10152765Y6614951D01*
X10160639Y6622825D01*
X10162815Y6626081D01*
X10163579Y6629921D01*
Y6630984D01*
X10188623D01*
X10211535D01*
X10221535D01*
X10244448D01*
Y6641732D01*
X10243672Y6645634D01*
X10241462Y6648942D01*
X10238154Y6651152D01*
X10234252Y6651928D01*
X10221535D01*
Y6630984D01*
X10211535D01*
Y6651928D01*
X10198819D01*
X10194917Y6651152D01*
X10191609Y6648942D01*
X10189399Y6645634D01*
X10188623Y6641732D01*
Y6630984D01*
X10163579D01*
Y6639277D01*
X10177165D01*
X10181685Y6641149D01*
X10183557Y6645669D01*
Y6671067D01*
X10192427D01*
Y6665354D01*
X10194299Y6660834D01*
X10198819Y6658962D01*
X10234252D01*
X10238772Y6660834D01*
X10240644Y6665354D01*
Y6696850D01*
X10238772Y6701370D01*
X10234252Y6703243D01*
X10198819D01*
X10194299Y6701370D01*
X10192427Y6696850D01*
Y6691138D01*
X10183557D01*
Y6716535D01*
X10181685Y6721055D01*
X10177165Y6722928D01*
X10129921D01*
X10125401Y6721055D01*
X10123529Y6716535D01*
Y6645669D01*
X10125401Y6641149D01*
X10129921Y6639277D01*
X10143508D01*
Y6634078D01*
X10141513Y6632082D01*
X10041733D01*
X10040074Y6634277D01*
X10042562Y6639277D01*
X10082677D01*
X10087197Y6641149D01*
X10089069Y6645669D01*
Y6716535D01*
X10087197Y6721055D01*
X10082677Y6722928D01*
X10035433D01*
X10030913Y6721055D01*
X10029041Y6716535D01*
Y6649702D01*
X10024041Y6647631D01*
X10018182Y6653491D01*
X10018203Y6653543D01*
Y6685039D01*
X10017417Y6686937D01*
X10017681Y6687431D01*
X10020989Y6689641D01*
X10023199Y6692949D01*
X10023975Y6696850D01*
Y6707598D01*
X9996064D01*
Y6712598D01*
X9991064D01*
Y6717598D01*
X10001064D01*
X10023975D01*
Y6728346D01*
X10023199Y6732248D01*
X10020989Y6735556D01*
X10017681Y6737766D01*
X10013779Y6738542D01*
X10001064D01*
Y6717598D01*
X9991064D01*
Y6738542D01*
X9978346D01*
X9974445Y6737766D01*
X9971137Y6735556D01*
X9967928Y6735240D01*
X9963789Y6739380D01*
X9960533Y6741555D01*
X9956693Y6742319D01*
X9952853Y6741555D01*
X9949597Y6739380D01*
X9947421Y6736124D01*
X9946658Y6732283D01*
X9947421Y6728443D01*
X9949597Y6725187D01*
X9955466Y6719319D01*
X9953003Y6714711D01*
X9952756Y6714760D01*
X9920745D01*
X9919260Y6717769D01*
X9918991Y6719760D01*
X9956913Y6757681D01*
X9971954D01*
Y6751969D01*
X9973827Y6747449D01*
X9978346Y6745576D01*
X10013779D01*
X10018299Y6747449D01*
X10020171Y6751969D01*
Y6757681D01*
X10040852D01*
Y6738189D01*
X10042724Y6733669D01*
X10047244Y6731797D01*
X10098425D01*
X10102945Y6733669D01*
X10104817Y6738189D01*
X10257387D01*
X10259260Y6733669D01*
X10263780Y6731797D01*
X10314961D01*
X10319481Y6733669D01*
X10321353Y6738189D01*
Y6812992D01*
X10319481Y6817512D01*
X10314961Y6819384D01*
X10263780D01*
X10259260Y6817512D01*
X10257387Y6812992D01*
Y6738189D01*
X10104817D01*
Y6812992D01*
X10102945Y6817512D01*
X10098425Y6819384D01*
X10047244D01*
X10042724Y6817512D01*
X10040852Y6812992D01*
Y6777752D01*
X10020171D01*
Y6783465D01*
X10018299Y6787984D01*
X10013779Y6789857D01*
X10006821D01*
X10005305Y6794857D01*
X10007096Y6796054D01*
X10068120Y6857077D01*
X10068590Y6857781D01*
X10098425D01*
X10102945Y6859653D01*
X10104817Y6864173D01*
X10257387D01*
X10259260Y6859653D01*
G37*
G36*
X8522694Y7024335D02*
X8520463Y7022844D01*
X8484046Y6986427D01*
X8481870Y6983171D01*
X8481107Y6979331D01*
Y6958875D01*
X8472441D01*
X8471728Y6958580D01*
X8466728Y6961920D01*
Y6968504D01*
X8465964Y6972344D01*
X8463789Y6975600D01*
X8448041Y6991348D01*
X8444785Y6993523D01*
X8440945Y6994287D01*
X8417323D01*
X8413482Y6993523D01*
X8410227Y6991348D01*
X8408051Y6988092D01*
X8407287Y6984252D01*
X8408051Y6980412D01*
X8410227Y6977156D01*
X8413482Y6974981D01*
X8417323Y6974217D01*
X8436788D01*
X8444753Y6966252D01*
X8444440Y6962330D01*
X8440945Y6958875D01*
X8409449D01*
X8404929Y6957003D01*
X8403057Y6952483D01*
Y6920987D01*
X8404929Y6916467D01*
X8409449Y6914594D01*
X8415161D01*
Y6783684D01*
X8342300Y6710823D01*
X8310865D01*
X8307064Y6716512D01*
X8299849Y6721333D01*
X8291339Y6723026D01*
X8282828Y6721333D01*
X8275614Y6716512D01*
X8270793Y6709298D01*
X8269100Y6700787D01*
X8270793Y6692277D01*
X8275614Y6685062D01*
X8281303Y6681261D01*
Y6673882D01*
X8275591D01*
X8271071Y6672010D01*
X8269198Y6667490D01*
Y6635994D01*
X8271071Y6631474D01*
X8275591Y6629602D01*
X8287209D01*
Y6612691D01*
X8285433D01*
X8280913Y6610819D01*
X8279041Y6606299D01*
Y6561024D01*
X8280913Y6556504D01*
X8281133Y6556413D01*
X8280139Y6551412D01*
X8239546D01*
X8238552Y6556413D01*
X8238772Y6556504D01*
X8240644Y6561024D01*
Y6606299D01*
X8238772Y6610819D01*
X8238496Y6610933D01*
X8237916Y6611696D01*
X8236834Y6617034D01*
X8237618Y6618207D01*
X8238382Y6622047D01*
Y6629602D01*
X8244094D01*
X8248614Y6631474D01*
X8250486Y6635994D01*
Y6667490D01*
X8248614Y6672010D01*
X8244094Y6673882D01*
X8238382D01*
Y6830489D01*
X8437228Y7029335D01*
X8521735D01*
X8522694Y7024335D01*
G37*
G36*
X8450226Y6799248D02*
X8452436Y6795940D01*
X8455744Y6793730D01*
X8459646Y6792954D01*
X8460551D01*
Y6833583D01*
X8449450D01*
Y6803150D01*
X8435232D01*
Y6914594D01*
X8440945D01*
X8441657Y6914890D01*
X8446658Y6911549D01*
Y6905512D01*
X8447421Y6901671D01*
X8449597Y6898416D01*
X8455516Y6892497D01*
Y6883283D01*
X8452436Y6881225D01*
X8450226Y6877918D01*
X8449450Y6874016D01*
Y6843583D01*
X8465551D01*
Y6838583D01*
X8470551D01*
Y6792954D01*
X8471457D01*
X8475358Y6793730D01*
X8477591Y6795222D01*
X8478666Y6795940D01*
X8479785Y6797615D01*
X8480717Y6798630D01*
X8485236Y6796758D01*
X8497047D01*
X8498915Y6797532D01*
X8501231Y6795975D01*
X8501376Y6792220D01*
X8500023Y6791316D01*
X8495203Y6784101D01*
X8493510Y6775591D01*
X8495203Y6767080D01*
X8500023Y6759866D01*
X8507238Y6755045D01*
X8509935Y6754509D01*
X8511580Y6749083D01*
X8318977Y6556480D01*
X8314738Y6559312D01*
X8315447Y6561024D01*
Y6606299D01*
X8313575Y6610819D01*
X8309055Y6612691D01*
X8307279D01*
Y6629682D01*
X8311607Y6631474D01*
X8313479Y6635994D01*
Y6667490D01*
X8311607Y6672010D01*
X8307087Y6673882D01*
X8301374D01*
Y6681261D01*
X8307064Y6685062D01*
X8310865Y6690752D01*
X8346457D01*
X8350297Y6691516D01*
X8353553Y6693691D01*
X8432293Y6772432D01*
X8434468Y6775687D01*
X8435232Y6779528D01*
Y6803150D01*
X8449450D01*
X8450226Y6799248D01*
G37*
G36*
X9798307Y6790548D02*
X9801292Y6788467D01*
X9801669Y6784365D01*
X9791119Y6773815D01*
X9779369D01*
X9775567Y6779504D01*
X9768353Y6784325D01*
X9759843Y6786018D01*
X9751332Y6784325D01*
X9744118Y6779504D01*
X9739297Y6772290D01*
X9737604Y6763780D01*
X9739297Y6755269D01*
X9744118Y6748055D01*
X9751332Y6743234D01*
X9759843Y6741541D01*
X9768353Y6743234D01*
X9775567Y6748055D01*
X9779369Y6753744D01*
X9795276D01*
X9799116Y6754508D01*
X9802372Y6756683D01*
X9817624Y6771936D01*
X9823839Y6771624D01*
X9824033Y6771480D01*
X9824154Y6771306D01*
X9823520Y6770357D01*
X9822603Y6765748D01*
X9823520Y6761140D01*
X9826130Y6757233D01*
Y6754578D01*
X9823520Y6750671D01*
X9822603Y6746063D01*
X9823520Y6741455D01*
X9826130Y6737548D01*
Y6734893D01*
X9823520Y6730986D01*
X9822603Y6726378D01*
X9823520Y6721770D01*
X9826130Y6717863D01*
Y6715208D01*
X9823520Y6711301D01*
X9822603Y6706693D01*
X9823520Y6702084D01*
X9826130Y6698178D01*
Y6695523D01*
X9823520Y6691616D01*
X9822603Y6687008D01*
X9823520Y6682399D01*
X9823548Y6682358D01*
X9820875Y6677358D01*
X9718724D01*
X9654762Y6741320D01*
X9656097Y6748032D01*
X9654404Y6756542D01*
X9649583Y6763757D01*
X9642369Y6768577D01*
X9633858Y6770270D01*
X9625348Y6768577D01*
X9618133Y6763757D01*
X9613129Y6763786D01*
X9608904Y6766608D01*
X9600394Y6768301D01*
X9591884Y6766608D01*
X9590756Y6767076D01*
X9589786Y6771954D01*
X9586270Y6777215D01*
X9584367Y6778487D01*
X9585929Y6780825D01*
X9586845Y6785433D01*
X9585929Y6790042D01*
X9583318Y6793948D01*
X9579411Y6796559D01*
X9574803Y6797476D01*
X9551237D01*
X9548605Y6802476D01*
X9549699Y6805118D01*
Y6822003D01*
X9554699Y6823519D01*
X9555141Y6822858D01*
X9562356Y6818037D01*
X9570866Y6816344D01*
X9579376Y6818037D01*
X9580005Y6818457D01*
X9584414Y6816100D01*
Y6807087D01*
X9585331Y6802478D01*
X9587941Y6798571D01*
X9591848Y6795961D01*
X9596457Y6795044D01*
X9601065Y6795961D01*
X9604972Y6798571D01*
X9607627D01*
X9611533Y6795961D01*
X9616142Y6795044D01*
X9620750Y6795961D01*
X9624657Y6798571D01*
X9627311D01*
X9631218Y6795961D01*
X9635827Y6795044D01*
X9640435Y6795961D01*
X9644342Y6798571D01*
X9646997D01*
X9650903Y6795961D01*
X9655512Y6795044D01*
X9660120Y6795961D01*
X9664027Y6798571D01*
X9666682D01*
X9670588Y6795961D01*
X9675197Y6795044D01*
X9679805Y6795961D01*
X9683712Y6798571D01*
X9686367D01*
X9690273Y6795961D01*
X9694882Y6795044D01*
X9699490Y6795961D01*
X9703397Y6798571D01*
X9706052D01*
X9709958Y6795961D01*
X9714567Y6795044D01*
X9719175Y6795961D01*
X9723082Y6798571D01*
X9725737D01*
X9729644Y6795961D01*
X9734252Y6795044D01*
X9738860Y6795961D01*
X9742767Y6798571D01*
X9745422D01*
X9749329Y6795961D01*
X9753937Y6795044D01*
X9758545Y6795961D01*
X9762452Y6798571D01*
X9765107D01*
X9769014Y6795961D01*
X9773622Y6795044D01*
X9778230Y6795961D01*
X9780568Y6797523D01*
X9781840Y6795619D01*
X9787101Y6792104D01*
X9788307Y6791864D01*
Y6836615D01*
X9798307D01*
Y6790548D01*
G37*
G36*
X9970472Y6820513D02*
X9974374Y6821289D01*
X9977682Y6823499D01*
X9979892Y6826807D01*
X9980668Y6830709D01*
Y6841457D01*
X9957756D01*
Y6820513D01*
X9947756D01*
Y6846457D01*
X9952756D01*
Y6851457D01*
X9980668D01*
Y6862205D01*
X9979892Y6866107D01*
X9977682Y6869414D01*
X9974374Y6871624D01*
X9970472Y6872401D01*
X9962393D01*
X9960905Y6874435D01*
X9963442Y6879435D01*
X9970472D01*
X9974992Y6881307D01*
X9976864Y6885827D01*
Y6891539D01*
X10040852D01*
Y6864173D01*
X10042604Y6859945D01*
X9995843Y6813185D01*
X9944882D01*
X9941042Y6812421D01*
X9937786Y6810246D01*
X9925975Y6798435D01*
X9923799Y6795179D01*
X9923036Y6791339D01*
Y6779747D01*
X9910542Y6767253D01*
X9905116Y6768899D01*
X9904826Y6770357D01*
X9902216Y6774263D01*
Y6776918D01*
X9904826Y6780825D01*
X9905743Y6785433D01*
X9904826Y6790042D01*
X9902216Y6793948D01*
X9898309Y6796559D01*
X9893701Y6797476D01*
X9889067D01*
X9887153Y6802095D01*
X9905438Y6820380D01*
X9921260D01*
X9925780Y6822252D01*
X9930868Y6821469D01*
X9931137Y6821289D01*
X9935039Y6820513D01*
X9947756D01*
X9957756D01*
X9970472D01*
G37*
D13*
X7277008Y5506457D03*
Y5371496D03*
X7200787Y5437008D03*
X9759843Y6763780D03*
X9507874Y6507874D03*
X9958661Y6505626D03*
X9956693Y6732283D03*
X9889764Y6531496D03*
X9854331Y7035433D03*
Y6956693D03*
X9905512Y6940945D03*
X9488189Y6874016D03*
X9838583Y6346457D03*
X8590534Y6893687D03*
X8641715D03*
X8173228Y7047244D03*
Y6893701D03*
X10055118Y6311024D03*
X10122047Y6263780D03*
X8771636Y6456680D03*
X8799213Y6476378D03*
X8901575D03*
X9358268Y6551181D03*
X10389764Y6244094D03*
X10748031Y6248031D03*
X11271654Y6267717D03*
X9803150Y6456693D03*
X10755906Y6086614D03*
X11279528Y6039370D03*
X9224409Y6909449D03*
X8823819Y6916339D03*
X8799213Y6889764D03*
X8771654Y6917323D03*
X8748031Y6889764D03*
X8720472Y6917323D03*
X8696850Y6891732D03*
X8062992Y6897638D03*
Y7062992D03*
X8669291Y6917323D03*
X8618110D03*
X8562992D03*
X8527559Y6960630D03*
X7173228Y5196850D03*
X8515748Y6775591D03*
X8433071Y8255906D03*
X9803150Y6610236D03*
X9633858Y6748031D03*
X9590551Y7287402D03*
X9600394Y6746063D03*
X9531496Y7283465D03*
X9570866Y6838583D03*
X9629921Y7125984D03*
X9669291Y7070866D03*
X8291339Y6700787D03*
X8417323Y6984252D03*
X8322835D03*
X8527559Y6677165D03*
Y6401575D03*
X8440945Y6433071D03*
D14*
X7708110Y5122992D03*
Y5552520D03*
X9878976D03*
Y5122992D03*
D15*
X9551181Y6452756D03*
Y6507874D03*
X10216535Y6625984D03*
Y6681102D03*
X9996063Y6547244D03*
Y6492126D03*
Y6767717D03*
Y6712598D03*
X9952756Y6901575D03*
Y6846457D03*
X9937008Y6645669D03*
Y6590551D03*
X9854331Y6901575D03*
Y6846457D03*
D16*
X9996063Y6606299D03*
Y6669291D03*
X8488189Y6405512D03*
Y6468504D03*
X9783465Y6956693D03*
X9720472D03*
X9574803Y7070866D03*
X9511811D03*
X8488189Y6936735D03*
X8425197D03*
X9905512Y6905512D03*
Y6842520D03*
X9925197Y6531496D03*
Y6468504D03*
X8228346Y6651742D03*
X8291339D03*
D17*
X8465551Y6838583D03*
X8491142D03*
X8516732D03*
X8542323D03*
X8567913D03*
X8593504D03*
X8619094D03*
X8644685D03*
X8670276D03*
X8695866D03*
X8721457D03*
X8747047D03*
X8772638D03*
X8798228D03*
X8823819D03*
X8849409D03*
Y6547244D03*
X8823819D03*
X8798228D03*
X8772638D03*
X8747047D03*
X8721457D03*
X8695866D03*
X8670276D03*
X8644685D03*
X8619094D03*
X8593504D03*
X8567913D03*
X8542323D03*
X8516732D03*
X8491142D03*
X8465551D03*
D18*
X8657480Y6692913D03*
D19*
X10072835Y6901575D03*
X10289370D03*
Y6775591D03*
X10072835D03*
D20*
X7979331Y8259843D03*
Y8133858D03*
X8186024Y8259843D03*
Y8133858D03*
D21*
X9582205Y7245039D03*
X9481024Y7243661D03*
X9482205Y7195039D03*
X9532205Y7245039D03*
Y7195039D03*
X9582205D03*
D22*
X9864173Y6785433D03*
Y6765748D03*
Y6746063D03*
Y6726378D03*
Y6706693D03*
Y6687008D03*
Y6667323D03*
Y6647638D03*
Y6627953D03*
Y6608268D03*
Y6588583D03*
Y6568898D03*
X9545276D03*
Y6588583D03*
Y6608268D03*
Y6627953D03*
Y6647638D03*
Y6667323D03*
Y6687008D03*
Y6706693D03*
Y6726378D03*
Y6746063D03*
Y6765748D03*
Y6785433D03*
D23*
X9812992Y6517717D03*
X9793307D03*
X9773622D03*
X9753937D03*
X9734252D03*
X9714567D03*
X9694882D03*
X9675197D03*
X9655512D03*
X9635827D03*
X9616142D03*
X9596457D03*
Y6836614D03*
X9616142D03*
X9635827D03*
X9655512D03*
X9675197D03*
X9694882D03*
X9714567D03*
X9734252D03*
X9753937D03*
X9773622D03*
X9793307D03*
X9812992D03*
D24*
X9472441Y6822834D03*
X9527559D03*
D25*
X7277008Y5436535D03*
Y5184567D03*
D26*
X10153543Y6523622D03*
Y6681102D03*
X10059055D03*
Y6523622D03*
D27*
X8259843Y6495079D03*
X8297244Y6583661D03*
X8222441D03*
%LPD*%
M02*