G04 Generated by UcamX,v2023.12-240208 on 2025.7.25*
%FSLAX26Y26*%
%MOIN*%
%ADD10C,0.007874*%
%ADD11C,0.015748*%
%ADD12C,0.011811*%
%ADD13C,0.023622*%
%ADD14R,0.039370X0.055118*%
G04 layer name: top*
%LPD*%
D10*
X9956693Y6732283D02*
X9958661Y6730315D01*
X9958661Y6505626D02*
Y6730315D01*
X9854331Y6956693D02*
Y7035433D01*
X9803150Y6456693D02*
Y6610236D01*
X8433071Y8106299D02*
Y8255906D01*
X8433071Y8106299D02*
X9220472Y7318898D01*
X9637795D01*
X9803150Y7153543D01*
X9803150Y6610236D02*
Y7153543D01*
X8551181Y6917323D02*
X8562992D01*
X8515748Y6881890D02*
X8551181Y6917323D01*
X8515748Y6775591D02*
Y6881890D01*
X8527559Y6933071D02*
Y6960630D01*
X8440945Y6846457D02*
X8527559Y6933071D01*
X8440945Y6433071D02*
Y6846457D01*
X9590551Y6852304D02*
Y7287402D01*
X9590551Y6852304D02*
X9594488Y6848367D01*
X9594488Y6751969D02*
Y6848367D01*
X9594488Y6751969D02*
X9600394Y6746063D01*
X9531496Y6877953D02*
Y7283465D01*
X9531496Y6877953D02*
X9570866Y6838583D01*
X9629921Y6751969D02*
X9633858Y6748032D01*
X9629921Y6751969D02*
Y7125984D01*
D11*
X8527559Y6401575D02*
Y6677165D01*
X8322835Y6984252D02*
X8417323D01*
D12*
X9838583Y5905512D02*
Y6346457D01*
X9358268Y6366142D02*
Y6551181D01*
X10755906Y6086614D02*
Y6185039D01*
X8641715Y6893687D02*
Y6900800D01*
X8645669Y6904754D01*
X8643701Y6906723D02*
X8645669Y6904754D01*
X8173228Y6724409D02*
Y6893701D01*
X8062992Y6614173D02*
X8173228Y6724409D01*
X8062992Y6417323D02*
Y6614173D01*
X8173228Y7047244D02*
X8622047D01*
X8643701Y7025591D01*
X8643701Y6906723D02*
Y7025591D01*
X8590534Y6232266D02*
Y6893687D01*
X7933071Y5574803D02*
X8590534Y6232266D01*
X7488189Y5574803D02*
X7933071D01*
X8062992Y7062992D02*
X8078740Y7078740D01*
X8062992Y6822835D02*
Y6897638D01*
X8078740Y7078740D02*
X8637795D01*
X8669291Y7047244D01*
X8669291Y6917323D02*
Y7047244D01*
X10118110Y5484252D02*
Y5602362D01*
X10055118Y5665354D02*
X10118110Y5602362D01*
X10055118Y5665354D02*
Y6311024D01*
X10401575Y5039370D02*
Y5488189D01*
X10122047Y5767717D02*
X10401575Y5488189D01*
X10122047Y5767717D02*
Y6263780D01*
X8610236Y5488189D02*
Y5814961D01*
X8799213Y6003937D01*
Y6476378D01*
X8901575Y5905512D02*
X8905512Y5901575D01*
X8901575Y5905512D02*
Y6476378D01*
X10141732Y7074803D02*
X10279528D01*
X10389764Y6964567D01*
X10389764Y6244094D02*
Y6964567D01*
X10740157Y7078740D02*
X10748032Y7070866D01*
X10748032Y6248032D02*
Y7070866D01*
X11271654Y7078740D02*
X11271654D01*
X11271654Y6267717D02*
Y7078740D01*
X11275591Y6185039D02*
X11279528Y6181102D01*
X11279528Y6039370D02*
Y6181102D01*
X9224409Y6830709D02*
X9224409D01*
Y6909449D01*
X8921260Y7232284D02*
Y7287402D01*
X8823819Y7134843D02*
X8921260Y7232284D01*
X8823819Y6916339D02*
Y7134843D01*
X8798228Y6890748D02*
Y7189961D01*
X8798228Y6890748D02*
X8799213Y6889764D01*
X8625984Y7362205D02*
X8798228Y7189961D01*
X8625984Y7362205D02*
Y7732283D01*
X8746063Y6891732D02*
X8748032Y6889764D01*
X7161417Y8196850D02*
X7685039D01*
X8746063Y7135827D01*
X8746063Y6891732D02*
Y7135827D01*
X8694882Y6893701D02*
X8696850Y6891732D01*
X7775591Y7263780D02*
X8507874D01*
X8694882Y7076772D01*
X8694882Y6893701D02*
Y7076772D01*
X7799213Y6035433D02*
Y6767717D01*
X8047244Y7015748D01*
X8598425D01*
X8618110Y6996063D01*
X8618110Y6917323D02*
Y6996063D01*
X7173228Y5122047D02*
X7173228D01*
Y5196850D01*
X8311024Y7625984D02*
Y8204724D01*
X8311024Y7625984D02*
X8771654Y7165354D01*
X8771654Y6917323D02*
Y7165354D01*
X7460630Y7736220D02*
X8090551D01*
X8720472Y7106299D01*
X8720472Y6917323D02*
Y7106299D01*
X8326772Y5070866D02*
Y5759843D01*
X8771636Y6204707D01*
Y6456680D01*
G36*
X11251386Y6152960D02*
X11255906Y6151088D01*
X11267485D01*
Y6057556D01*
X11263803Y6055095D01*
X11258982Y6047880D01*
X11257289Y6039370D01*
X11258982Y6030860D01*
X11263803Y6023645D01*
X11271017Y6018825D01*
X11279528Y6017132D01*
X11288038Y6018825D01*
X11295253Y6023645D01*
X11300073Y6030860D01*
X11301766Y6039370D01*
X11300073Y6047880D01*
X11295253Y6055095D01*
X11291570Y6057556D01*
Y6151088D01*
X11295276D01*
X11299795Y6152960D01*
X11301668Y6157480D01*
Y6212598D01*
X11299795Y6217118D01*
X11295276Y6218991D01*
X11255906D01*
X11251386Y6217118D01*
X11249514Y6212598D01*
Y6157480D01*
X11226731D01*
Y6180039D01*
X11201850D01*
Y6147284D01*
X11191850D01*
Y6180039D01*
X11166969D01*
Y6157480D01*
X10781983D01*
Y6190039D01*
X11166969D01*
X11191850D01*
X11201850D01*
X11226731D01*
Y6212598D01*
X11225955Y6216500D01*
X11223745Y6219808D01*
X11220437Y6222018D01*
X11216535Y6222794D01*
X11201850D01*
Y6190039D01*
X11191850D01*
Y6222794D01*
X11177165D01*
X11173264Y6222018D01*
X11169956Y6219808D01*
X11167746Y6216500D01*
X11166969Y6212598D01*
Y6190039D01*
X10781983D01*
Y6212598D01*
X10780110Y6217118D01*
X10775591Y6218991D01*
X10736220D01*
X10731701Y6217118D01*
X10729828Y6212598D01*
Y6157480D01*
X10707046D01*
Y6180039D01*
X10682165D01*
Y6147284D01*
X10672165D01*
Y6180039D01*
X10647284D01*
Y6157480D01*
X10134090D01*
Y6190039D01*
X10647284D01*
X10672165D01*
X10682165D01*
X10707046D01*
Y6212598D01*
X10706270Y6216500D01*
X10704060Y6219808D01*
X10700752Y6222018D01*
X10696850Y6222794D01*
X10682165D01*
Y6190039D01*
X10672165D01*
Y6222794D01*
X10657480D01*
X10653579Y6222018D01*
X10650271Y6219808D01*
X10648060Y6216500D01*
X10647284Y6212598D01*
Y6190039D01*
X10134090D01*
Y6245594D01*
X10137772Y6248055D01*
X10142593Y6255269D01*
X10144285Y6263780D01*
X10142593Y6272290D01*
X10137772Y6279504D01*
X10130557Y6284325D01*
X10122047Y6286018D01*
X10113537Y6284325D01*
X10106322Y6279504D01*
X10101502Y6272290D01*
X10099809Y6263780D01*
X10067160D01*
Y6292838D01*
X10070843Y6295299D01*
X10075664Y6302513D01*
X10077357Y6311024D01*
X10075664Y6319534D01*
X10070843Y6326748D01*
X10063628Y6331569D01*
X10055118Y6333262D01*
X10046608Y6331569D01*
X10039393Y6326748D01*
X10034573Y6319534D01*
X10032880Y6311024D01*
X9850625D01*
Y6328271D01*
X9854308Y6330732D01*
X9859128Y6337946D01*
X9860821Y6346457D01*
X9859128Y6354967D01*
X9854308Y6362182D01*
X9847093Y6367002D01*
X9838583Y6368695D01*
X9830072Y6367002D01*
X9822858Y6362182D01*
X9818037Y6354967D01*
X9816344Y6346457D01*
X9818037Y6337946D01*
X9822858Y6330732D01*
X9826540Y6328271D01*
Y5939463D01*
X9818898D01*
X9814378Y5937591D01*
X9812506Y5933071D01*
Y5877953D01*
X9789723D01*
Y5900512D01*
X9764843D01*
Y5867757D01*
X9754843D01*
Y5900512D01*
X9729962D01*
Y5877953D01*
X8931589D01*
Y5910512D01*
X9729962D01*
X9754843D01*
X9764843D01*
X9789723D01*
Y5933071D01*
X9788947Y5936973D01*
X9786737Y5940280D01*
X9783429Y5942491D01*
X9779528Y5943267D01*
X9764843D01*
Y5910512D01*
X9754843D01*
Y5943267D01*
X9740157D01*
X9736256Y5942491D01*
X9732948Y5940280D01*
X9730738Y5936973D01*
X9729962Y5933071D01*
Y5910512D01*
X8931589D01*
Y5929134D01*
X8929717Y5933654D01*
X8925197Y5935526D01*
X8913617D01*
Y6338583D01*
X9249647D01*
X9250423Y6334681D01*
X9252633Y6331373D01*
X9255941Y6329163D01*
X9259843Y6328387D01*
X9274527D01*
X9284527D01*
X9299212D01*
X9303114Y6329163D01*
X9306422Y6331373D01*
X9308632Y6334681D01*
X9309408Y6338583D01*
X9332191D01*
X9334063Y6334063D01*
X9338583Y6332191D01*
X9377953D01*
X9382473Y6334063D01*
X9384345Y6338583D01*
Y6393701D01*
X9382473Y6398221D01*
X9377953Y6400093D01*
X9370310D01*
Y6502874D01*
X9486630D01*
X9487329Y6499364D01*
X9492149Y6492149D01*
X9499364Y6487329D01*
X9502874Y6486630D01*
X9512874D01*
X9516384Y6487329D01*
X9523599Y6492149D01*
X9528419Y6499364D01*
X9529118Y6502874D01*
X9512874D01*
Y6486630D01*
X9502874D01*
Y6502874D01*
X9486630D01*
X9370310D01*
Y6512874D01*
X9486630D01*
X9502874D01*
X9512874D01*
X9529118D01*
X9528419Y6516384D01*
X9523599Y6523599D01*
X9516384Y6528419D01*
X9512874Y6529118D01*
Y6512874D01*
X9502874D01*
Y6529118D01*
X9499364Y6528419D01*
X9492149Y6523599D01*
X9487329Y6516384D01*
X9486630Y6512874D01*
X9370310D01*
Y6532996D01*
X9373993Y6535456D01*
X9378813Y6542671D01*
X9380506Y6551181D01*
X9378813Y6559691D01*
X9373993Y6566906D01*
X9366778Y6571727D01*
X9358268Y6573419D01*
X9349757Y6571727D01*
X9342543Y6566906D01*
X9337722Y6559691D01*
X9336029Y6551181D01*
X9337722Y6542671D01*
X9342543Y6535456D01*
X9346225Y6532996D01*
Y6400093D01*
X9338583D01*
X9334063Y6398221D01*
X9332191Y6393701D01*
Y6338583D01*
X9309408D01*
Y6361142D01*
X9284527D01*
Y6328387D01*
X9274527D01*
Y6361142D01*
X9249647D01*
Y6338583D01*
X8913617D01*
Y6371142D01*
X9249647D01*
X9274527D01*
X9284527D01*
X9309408D01*
Y6393701D01*
X9308632Y6397603D01*
X9306422Y6400910D01*
X9303114Y6403120D01*
X9299212Y6403897D01*
X9284527D01*
Y6371142D01*
X9274527D01*
Y6403897D01*
X9259843D01*
X9255941Y6403120D01*
X9252633Y6400910D01*
X9250423Y6397603D01*
X9249647Y6393701D01*
Y6371142D01*
X8913617D01*
Y6458193D01*
X8917300Y6460653D01*
X8922120Y6467868D01*
X8923813Y6476378D01*
X8922120Y6484888D01*
X8917300Y6492103D01*
X8910085Y6496923D01*
X8901575Y6498616D01*
X8893065Y6496923D01*
X8885850Y6492103D01*
X8881029Y6484888D01*
X8879336Y6476378D01*
X8821451D01*
X8819758Y6484888D01*
X8814937Y6492103D01*
X8807723Y6496923D01*
X8799213Y6498616D01*
X8790702Y6496923D01*
X8783488Y6492103D01*
X8778667Y6484888D01*
X8777257Y6477800D01*
X8771636Y6478918D01*
X8763126Y6477226D01*
X8755911Y6472405D01*
X8751091Y6465190D01*
X8749398Y6456680D01*
X8751091Y6448170D01*
X8755911Y6440955D01*
X8759594Y6438495D01*
Y6209695D01*
X8318257Y5768358D01*
X8315646Y5764451D01*
X8314729Y5759842D01*
Y5104817D01*
X8307087D01*
X8302567Y5102945D01*
X8300695Y5098425D01*
Y5043307D01*
X8277912D01*
Y5065866D01*
X8253031D01*
Y5033111D01*
X8243031D01*
Y5065866D01*
X8218151D01*
Y5043307D01*
X6664869D01*
X6686644Y5075866D01*
X8218151D01*
X8243031D01*
X8253031D01*
X8277912D01*
Y5098425D01*
X8277136Y5102327D01*
X8274926Y5105635D01*
X8271618Y5107845D01*
X8267717Y5108621D01*
X8253031D01*
Y5075866D01*
X8243031D01*
Y5108621D01*
X8228346D01*
X8224445Y5107845D01*
X8221137Y5105635D01*
X8218927Y5102327D01*
X8218151Y5098425D01*
Y5075866D01*
X6686644D01*
X6699098Y5094488D01*
X7064607D01*
X7065383Y5090586D01*
X7067594Y5087279D01*
X7070901Y5085068D01*
X7074803Y5084292D01*
X7089488D01*
X7099488D01*
X7114173D01*
X7118075Y5085068D01*
X7121383Y5087279D01*
X7123593Y5090586D01*
X7124369Y5094488D01*
X7147151D01*
X7149023Y5089968D01*
X7153543Y5088096D01*
X7192913D01*
X7197433Y5089968D01*
X7199306Y5094488D01*
Y5149606D01*
X7197433Y5154126D01*
X7192913Y5155998D01*
X7185271D01*
Y5178665D01*
X7188953Y5181126D01*
X7193774Y5188340D01*
X7195467Y5196850D01*
X7193774Y5205361D01*
X7188953Y5212575D01*
X7181739Y5217396D01*
X7173228Y5219089D01*
X7164718Y5217396D01*
X7157503Y5212575D01*
X7152683Y5205361D01*
X7150990Y5196850D01*
X7152683Y5188340D01*
X7157503Y5181126D01*
X7161186Y5178665D01*
Y5155998D01*
X7153543D01*
X7149023Y5154126D01*
X7147151Y5149606D01*
Y5094488D01*
X7124369D01*
Y5117047D01*
X7099488D01*
Y5084292D01*
X7089488D01*
Y5117047D01*
X7064607D01*
Y5094488D01*
X6699098D01*
X6720874Y5127047D01*
X7064607D01*
X7089488D01*
X7099488D01*
X7124369D01*
Y5149606D01*
X7123593Y5153508D01*
X7121383Y5156816D01*
X7118075Y5159026D01*
X7114173Y5159802D01*
X7099488D01*
Y5127047D01*
X7089488D01*
Y5159802D01*
X7074803D01*
X7070901Y5159026D01*
X7067594Y5156816D01*
X7065383Y5153508D01*
X7064607Y5149606D01*
Y5127047D01*
X6720874D01*
X6881016Y5366496D01*
X7255764D01*
X7256462Y5362986D01*
X7261283Y5355771D01*
X7268498Y5350951D01*
X7272008Y5350252D01*
X7282008D01*
X7285518Y5350951D01*
X7292733Y5355771D01*
X7297553Y5362986D01*
X7298252Y5366496D01*
X7282008D01*
Y5350252D01*
X7272008D01*
Y5366496D01*
X7255764D01*
X6881016D01*
X6887704Y5376496D01*
X7255764D01*
X7272008D01*
X7282008D01*
X7298252D01*
X7297553Y5380006D01*
X7292733Y5387221D01*
X7285518Y5392042D01*
X7282008Y5392740D01*
Y5376496D01*
X7272008D01*
Y5392740D01*
X7268498Y5392042D01*
X7261283Y5387221D01*
X7256462Y5380006D01*
X7255764Y5376496D01*
X6887704D01*
X6924831Y5432008D01*
X7179544D01*
X7180242Y5428498D01*
X7185063Y5421283D01*
X7192277Y5416462D01*
X7195787Y5415764D01*
X7205787D01*
X7209298Y5416462D01*
X7216512Y5421283D01*
X7221333Y5428498D01*
X7222031Y5432008D01*
X7205787D01*
Y5415764D01*
X7195787D01*
Y5432008D01*
X7179544D01*
X6924831D01*
X6931519Y5442008D01*
X7179544D01*
X7195787D01*
X7205787D01*
X7222031D01*
X7221333Y5445518D01*
X7216512Y5452733D01*
X7209298Y5457553D01*
X7205787Y5458252D01*
Y5442008D01*
X7195787D01*
Y5458252D01*
X7192277Y5457553D01*
X7185063Y5452733D01*
X7180242Y5445518D01*
X7179544Y5442008D01*
X6931519D01*
X6971278Y5501457D01*
X7255764D01*
X7256462Y5497946D01*
X7261283Y5490732D01*
X7268498Y5485911D01*
X7272008Y5485213D01*
X7282008D01*
X7285518Y5485911D01*
X7292733Y5490732D01*
X7297553Y5497946D01*
X7298252Y5501457D01*
X7282008D01*
Y5485213D01*
X7272008D01*
Y5501457D01*
X7255764D01*
X6971278D01*
X6977966Y5511457D01*
X7255764D01*
X7272008D01*
X7282008D01*
X7298252D01*
X7297553Y5514967D01*
X7292733Y5522182D01*
X7285518Y5527002D01*
X7282008Y5527700D01*
Y5511457D01*
X7272008D01*
Y5527700D01*
X7268498Y5527002D01*
X7261283Y5522182D01*
X7256462Y5514967D01*
X7255764Y5511457D01*
X6977966D01*
X7001900Y5547244D01*
X7379568D01*
X7380344Y5543342D01*
X7382554Y5540034D01*
X7385862Y5537824D01*
X7389764Y5537048D01*
X7404449D01*
X7414449D01*
X7429134D01*
X7433036Y5537824D01*
X7436343Y5540034D01*
X7438554Y5543342D01*
X7439330Y5547244D01*
Y5569803D01*
X7414449D01*
Y5537048D01*
X7404449D01*
Y5569803D01*
X7379568D01*
Y5547244D01*
X7001900D01*
X7023675Y5579803D01*
X7379568D01*
X7404449D01*
X7414449D01*
X7439330D01*
Y5602362D01*
X7438554Y5606264D01*
X7436343Y5609572D01*
X7433036Y5611782D01*
X7429134Y5612558D01*
X7414449D01*
Y5579803D01*
X7404449D01*
Y5612558D01*
X7389764D01*
X7385862Y5611782D01*
X7382554Y5609572D01*
X7380344Y5606264D01*
X7379568Y5602362D01*
Y5579803D01*
X7023675D01*
X7309968Y6007874D01*
X7690592D01*
X7691368Y6003972D01*
X7693578Y6000665D01*
X7696886Y5998454D01*
X7700787Y5997678D01*
X7715472D01*
X7725472D01*
X7740157D01*
X7744059Y5998454D01*
X7747367Y6000665D01*
X7749577Y6003972D01*
X7750353Y6007874D01*
Y6030434D01*
X7725472D01*
Y5997678D01*
X7715472D01*
Y6030434D01*
X7690592D01*
Y6007874D01*
X7309968D01*
X7331744Y6040434D01*
X7690592D01*
X7715472D01*
X7725472D01*
X7750353D01*
Y6062992D01*
X7749577Y6066894D01*
X7747367Y6070202D01*
X7744059Y6072412D01*
X7740157Y6073188D01*
X7725472D01*
Y6040434D01*
X7715472D01*
Y6073188D01*
X7700787D01*
X7696886Y6072412D01*
X7693578Y6070202D01*
X7691368Y6066894D01*
X7690592Y6062992D01*
Y6040434D01*
X7331744D01*
X7721267Y6622858D01*
X7721903Y6624390D01*
X7722791Y6626533D01*
X7722792Y6628118D01*
X7722793Y6630511D01*
X7722065Y6632271D01*
X7721273Y6634186D01*
X7319505Y7236220D01*
X7666969D01*
X7667746Y7232319D01*
X7669956Y7229011D01*
X7673264Y7226801D01*
X7677165Y7226025D01*
X7691850D01*
X7701850D01*
X7716535D01*
X7720437Y7226801D01*
X7723745Y7229011D01*
X7725955Y7232319D01*
X7726731Y7236220D01*
Y7258779D01*
X7701850D01*
Y7226025D01*
X7691850D01*
Y7258779D01*
X7666969D01*
Y7236220D01*
X7319505D01*
X7297777Y7268779D01*
X7666969D01*
X7691850D01*
X7701850D01*
X7726731D01*
Y7291339D01*
X7725955Y7295240D01*
X7723745Y7298548D01*
X7720437Y7300758D01*
X7716535Y7301534D01*
X7701850D01*
Y7268779D01*
X7691850D01*
Y7301534D01*
X7677165D01*
X7673264Y7300758D01*
X7669956Y7298548D01*
X7667746Y7295240D01*
X7666969Y7291339D01*
Y7268779D01*
X7297777D01*
X7004222Y7708661D01*
X7352009D01*
X7352785Y7704760D01*
X7354995Y7701452D01*
X7358303Y7699242D01*
X7362205Y7698466D01*
X7376890D01*
X7386890D01*
X7401575D01*
X7405477Y7699242D01*
X7408784Y7701452D01*
X7410994Y7704760D01*
X7411771Y7708661D01*
Y7731221D01*
X7386890D01*
Y7698466D01*
X7376890D01*
Y7731221D01*
X7352009D01*
Y7708661D01*
X7004222D01*
X6982493Y7741221D01*
X7352009D01*
X7376890D01*
X7386890D01*
X7411771D01*
Y7763780D01*
X7410994Y7767681D01*
X7408784Y7770989D01*
X7405477Y7773199D01*
X7401575Y7773975D01*
X7386890D01*
Y7741221D01*
X7376890D01*
Y7773975D01*
X7362205D01*
X7358303Y7773199D01*
X7354995Y7770989D01*
X7352785Y7767681D01*
X7352009Y7763780D01*
Y7741221D01*
X6982493D01*
X6696820Y8169291D01*
X7052796D01*
X7053572Y8165390D01*
X7055782Y8162082D01*
X7059090Y8159872D01*
X7062992Y8159095D01*
X7077677D01*
X7087677D01*
X7102362D01*
X7106264Y8159872D01*
X7109572Y8162082D01*
X7111782Y8165390D01*
X7112558Y8169291D01*
X7135340D01*
X7137212Y8164771D01*
X7141732Y8162899D01*
X7181102D01*
X7185622Y8164771D01*
X7187494Y8169291D01*
Y8184808D01*
X7680051D01*
X8734021Y7130839D01*
Y7116282D01*
X8729021Y7114765D01*
X8728988Y7114815D01*
X8099067Y7744736D01*
X8095160Y7747346D01*
X8090551Y7748263D01*
X7486707D01*
Y7763780D01*
X7484835Y7768299D01*
X7480315Y7770172D01*
X7440945D01*
X7436425Y7768299D01*
X7434553Y7763780D01*
Y7708661D01*
X7436425Y7704142D01*
X7440945Y7702269D01*
X7480315D01*
X7484835Y7704142D01*
X7486707Y7708661D01*
Y7724178D01*
X8085563D01*
X8708430Y7101311D01*
Y7086755D01*
X8703430Y7085238D01*
X8703397Y7085287D01*
X8516389Y7272295D01*
X8512482Y7274905D01*
X8507873Y7275822D01*
X7801668D01*
Y7291339D01*
X7799795Y7295858D01*
X7795276Y7297731D01*
X7755906D01*
X7751386Y7295858D01*
X7749514Y7291339D01*
Y7236220D01*
X7751386Y7231701D01*
X7755906Y7229828D01*
X7795276D01*
X7799795Y7231701D01*
X7801668Y7236220D01*
Y7251737D01*
X8502886D01*
X8682840Y7071783D01*
Y7057227D01*
X8677840Y7055710D01*
X8677807Y7055759D01*
X8646310Y7087256D01*
X8642404Y7089866D01*
X8637795Y7090783D01*
X8078741D01*
X8074132Y7089866D01*
X8070225Y7087255D01*
X8067336Y7084366D01*
X8062992Y7085230D01*
X8054482Y7083538D01*
X8047267Y7078717D01*
X8042447Y7071502D01*
X8040754Y7062992D01*
X8042447Y7054482D01*
X8047267Y7047267D01*
X8054482Y7042447D01*
X8062992Y7040754D01*
X8071502Y7042447D01*
X8078717Y7047267D01*
X8083538Y7054482D01*
X8085230Y7062992D01*
X8088272Y7066698D01*
X8154769D01*
X8156654Y7061698D01*
X8152683Y7055754D01*
X8150990Y7047244D01*
X8152683Y7038734D01*
X8156654Y7032790D01*
X8154769Y7027790D01*
X8047244D01*
X8042636Y7026874D01*
X8038729Y7024263D01*
X7790697Y6776232D01*
X7788087Y6772325D01*
X7787170Y6767716D01*
Y6069384D01*
X7779528D01*
X7775008Y6067512D01*
X7773135Y6062992D01*
Y6007874D01*
X7775008Y6003354D01*
X7779528Y6001482D01*
X7818898D01*
X7823418Y6003354D01*
X7825290Y6007874D01*
Y6062992D01*
X7823418Y6067512D01*
X7818898Y6069384D01*
X7811255D01*
Y6389764D01*
X7954371D01*
X7955147Y6385862D01*
X7957357Y6382554D01*
X7960665Y6380344D01*
X7964567Y6379568D01*
X7979252D01*
X7989252D01*
X8003937D01*
X8007839Y6380344D01*
X8011146Y6382554D01*
X8013357Y6385862D01*
X8014133Y6389764D01*
X8036915D01*
X8038787Y6385244D01*
X8043307Y6383372D01*
X8082677D01*
X8087197Y6385244D01*
X8089069Y6389764D01*
Y6401575D01*
X8505321D01*
X8507014Y6393065D01*
X8511834Y6385850D01*
X8519049Y6381029D01*
X8527559Y6379336D01*
X8536069Y6381029D01*
X8543284Y6385850D01*
X8548105Y6393065D01*
X8549797Y6401575D01*
X8548105Y6410085D01*
X8543284Y6417300D01*
X8541609Y6418419D01*
Y6660321D01*
X8543284Y6661441D01*
X8548105Y6668655D01*
X8549797Y6677165D01*
X8548105Y6685676D01*
X8543284Y6692890D01*
X8536069Y6697711D01*
X8527559Y6699404D01*
X8519049Y6697711D01*
X8511834Y6692890D01*
X8507014Y6685676D01*
X8505321Y6677165D01*
X8507014Y6668655D01*
X8511834Y6661441D01*
X8513510Y6660321D01*
Y6418419D01*
X8511834Y6417300D01*
X8507014Y6410085D01*
X8505321Y6401575D01*
X8089069D01*
Y6433071D01*
X8418707D01*
X8420399Y6424561D01*
X8425220Y6417346D01*
X8432435Y6412525D01*
X8440945Y6410833D01*
X8449455Y6412525D01*
X8456670Y6417346D01*
X8461490Y6424561D01*
X8463183Y6433071D01*
X8461490Y6441581D01*
X8456670Y6448796D01*
X8450980Y6452597D01*
Y6842300D01*
X8534655Y6925975D01*
X8536831Y6929231D01*
X8537594Y6933071D01*
Y6941103D01*
X8543284Y6944905D01*
X8548105Y6952120D01*
X8549797Y6960630D01*
X8548105Y6969140D01*
X8543284Y6976355D01*
X8536069Y6981175D01*
X8527559Y6982868D01*
X8519049Y6981175D01*
X8511834Y6976355D01*
X8507014Y6969140D01*
X8505321Y6960630D01*
X8507014Y6952120D01*
X8511834Y6944905D01*
X8516485Y6941797D01*
X8516828Y6936532D01*
X8433849Y6853553D01*
X8431673Y6850297D01*
X8430910Y6846457D01*
Y6452597D01*
X8425220Y6448796D01*
X8420399Y6441581D01*
X8418707Y6433071D01*
X8089069D01*
Y6444882D01*
X8087197Y6449402D01*
X8082677Y6451274D01*
X8075034D01*
Y6609185D01*
X8161637Y6695787D01*
X8270095D01*
X8270793Y6692277D01*
X8275614Y6685062D01*
X8282828Y6680242D01*
X8286339Y6679544D01*
X8296339D01*
X8299849Y6680242D01*
X8307064Y6685062D01*
X8311884Y6692277D01*
X8312582Y6695787D01*
X8296339D01*
Y6679544D01*
X8286339D01*
Y6695787D01*
X8270095D01*
X8161637D01*
X8171637Y6705787D01*
X8270095D01*
X8286339D01*
X8296339D01*
X8312582D01*
X8311884Y6709298D01*
X8307064Y6716512D01*
X8299849Y6721333D01*
X8296339Y6722031D01*
Y6705787D01*
X8286339D01*
Y6722031D01*
X8282828Y6721333D01*
X8275614Y6716512D01*
X8270793Y6709298D01*
X8270095Y6705787D01*
X8171637D01*
X8181744Y6715894D01*
X8184354Y6719801D01*
X8185271Y6724409D01*
Y6875515D01*
X8188953Y6877976D01*
X8193774Y6885191D01*
X8195467Y6893701D01*
X8193774Y6902211D01*
X8188953Y6909426D01*
X8181739Y6914246D01*
X8173228Y6915939D01*
X8164718Y6914246D01*
X8157503Y6909426D01*
X8152683Y6902211D01*
X8150990Y6893701D01*
X8152683Y6885191D01*
X8157503Y6877976D01*
X8161186Y6875515D01*
Y6729397D01*
X8054477Y6622689D01*
X8051866Y6618782D01*
X8050950Y6614173D01*
Y6451274D01*
X8043307D01*
X8038787Y6449402D01*
X8036915Y6444882D01*
Y6389764D01*
X8014133D01*
Y6412323D01*
X7989252D01*
Y6379568D01*
X7979252D01*
Y6412323D01*
X7954371D01*
Y6389764D01*
X7811255D01*
Y6422323D01*
X7954371D01*
X7979252D01*
X7989252D01*
X8014133D01*
Y6444882D01*
X8013357Y6448784D01*
X8011146Y6452091D01*
X8007839Y6454302D01*
X8003937Y6455078D01*
X7989252D01*
Y6422323D01*
X7979252D01*
Y6455078D01*
X7964567D01*
X7960665Y6454302D01*
X7957357Y6452091D01*
X7955147Y6448784D01*
X7954371Y6444882D01*
Y6422323D01*
X7811255D01*
Y6762728D01*
X7843802Y6795276D01*
X7954371D01*
X7955147Y6791374D01*
X7957357Y6788066D01*
X7960665Y6785856D01*
X7964567Y6785080D01*
X7979252D01*
X7989252D01*
X8003937D01*
X8007839Y6785856D01*
X8011146Y6788066D01*
X8013357Y6791374D01*
X8014133Y6795276D01*
X8036915D01*
X8038787Y6790756D01*
X8043307Y6788883D01*
X8082677D01*
X8087197Y6790756D01*
X8089069Y6795276D01*
Y6850394D01*
X8087197Y6854914D01*
X8082677Y6856786D01*
X8075034D01*
Y6879452D01*
X8078717Y6881913D01*
X8083538Y6889128D01*
X8085230Y6897638D01*
X8083538Y6906148D01*
X8078717Y6913363D01*
X8071502Y6918183D01*
X8062992Y6919876D01*
X8054482Y6918183D01*
X8047267Y6913363D01*
X8042447Y6906148D01*
X8040754Y6897638D01*
X8042447Y6889128D01*
X8047267Y6881913D01*
X8050950Y6879452D01*
Y6856786D01*
X8043307D01*
X8038787Y6854914D01*
X8036915Y6850394D01*
Y6795276D01*
X8014133D01*
Y6817834D01*
X7989252D01*
Y6785080D01*
X7979252D01*
Y6817834D01*
X7954371D01*
Y6795276D01*
X7843802D01*
X7876361Y6827834D01*
X7954371D01*
X7979252D01*
X7989252D01*
X8014133D01*
Y6850394D01*
X8013357Y6854295D01*
X8011146Y6857603D01*
X8007839Y6859813D01*
X8003937Y6860590D01*
X7989252D01*
Y6827834D01*
X7979252D01*
Y6860590D01*
X7964567D01*
X7960665Y6859813D01*
X7957357Y6857603D01*
X7955147Y6854295D01*
X7954371Y6850394D01*
Y6827834D01*
X7876361D01*
X8052232Y7003706D01*
X8304375D01*
X8306260Y6998706D01*
X8302289Y6992762D01*
X8300596Y6984252D01*
X8302289Y6975742D01*
X8307110Y6968527D01*
X8314324Y6963707D01*
X8322835Y6962014D01*
X8331345Y6963707D01*
X8338559Y6968527D01*
X8339679Y6970203D01*
X8400479D01*
X8401598Y6968527D01*
X8408813Y6963707D01*
X8417323Y6962014D01*
X8425833Y6963707D01*
X8433048Y6968527D01*
X8437868Y6975742D01*
X8439561Y6984252D01*
X8437868Y6992762D01*
X8433897Y6998706D01*
X8435782Y7003706D01*
X8593437D01*
X8606068Y6991075D01*
Y6935508D01*
X8602385Y6933048D01*
X8597565Y6925833D01*
X8596377Y6919861D01*
X8591477Y6915738D01*
X8590534Y6915925D01*
X8589627Y6915745D01*
X8584724Y6919868D01*
X8583538Y6925833D01*
X8578717Y6933048D01*
X8571502Y6937868D01*
X8562992Y6939561D01*
X8554482Y6937868D01*
X8547267Y6933048D01*
X8542447Y6925833D01*
X8541689Y6922022D01*
X8508652Y6888986D01*
X8506477Y6885730D01*
X8505713Y6881890D01*
Y6795117D01*
X8500023Y6791316D01*
X8495203Y6784101D01*
X8493510Y6775591D01*
X8495203Y6767080D01*
X8500023Y6759866D01*
X8507238Y6755045D01*
X8515748Y6753352D01*
X8524258Y6755045D01*
X8531473Y6759866D01*
X8536294Y6767080D01*
X8537986Y6775591D01*
X8536294Y6784101D01*
X8531473Y6791316D01*
X8525783Y6795117D01*
Y6877733D01*
X8548694Y6900644D01*
X8554482Y6896777D01*
X8562992Y6895084D01*
X8563900Y6895265D01*
X8568802Y6891142D01*
X8569989Y6885177D01*
X8574809Y6877962D01*
X8578492Y6875502D01*
Y6237254D01*
X7928083Y5586845D01*
X7514266D01*
Y5602362D01*
X7512394Y5606882D01*
X7507874Y5608754D01*
X7468504D01*
X7463984Y5606882D01*
X7462112Y5602362D01*
Y5547244D01*
X7463984Y5542724D01*
X7468504Y5540852D01*
X7507874D01*
X7512394Y5542724D01*
X7514266Y5547244D01*
Y5562761D01*
X7933071D01*
X7937679Y5563677D01*
X7941586Y5566288D01*
X8599049Y6223751D01*
X8601660Y6227658D01*
X8602576Y6232266D01*
Y6803150D01*
X9115788D01*
X9116565Y6799248D01*
X9118775Y6795940D01*
X9122082Y6793730D01*
X9125984Y6792954D01*
X9140670D01*
X9150670D01*
X9165354D01*
X9169256Y6793730D01*
X9172564Y6795940D01*
X9174774Y6799248D01*
X9175550Y6803150D01*
X9198332D01*
X9200205Y6798630D01*
X9204724Y6796758D01*
X9244094D01*
X9248614Y6798630D01*
X9250487Y6803150D01*
Y6858268D01*
X9248614Y6862788D01*
X9244094Y6864660D01*
X9236452D01*
Y6869016D01*
X9466945D01*
X9467644Y6865506D01*
X9472464Y6858291D01*
X9479679Y6853470D01*
X9483189Y6852772D01*
X9493189D01*
X9496699Y6853470D01*
X9503914Y6858291D01*
X9508734Y6865506D01*
X9509433Y6869016D01*
X9493189D01*
Y6852772D01*
X9483189D01*
Y6869016D01*
X9466945D01*
X9236452D01*
Y6879016D01*
X9466945D01*
X9483189D01*
X9493189D01*
X9509433D01*
X9508734Y6882526D01*
X9503914Y6889741D01*
X9496699Y6894561D01*
X9493189Y6895259D01*
Y6879016D01*
X9483189D01*
Y6895259D01*
X9479679Y6894561D01*
X9472464Y6889741D01*
X9467644Y6882526D01*
X9466945Y6879016D01*
X9236452D01*
Y6891263D01*
X9240134Y6893724D01*
X9244955Y6900939D01*
X9246648Y6909449D01*
X9244955Y6917959D01*
X9240134Y6925174D01*
X9232920Y6929994D01*
X9224409Y6931687D01*
X9215899Y6929994D01*
X9208684Y6925174D01*
X9203864Y6917959D01*
X9202171Y6909449D01*
X9203864Y6900939D01*
X9208684Y6893724D01*
X9212367Y6891263D01*
Y6864660D01*
X9204724D01*
X9200205Y6862788D01*
X9198332Y6858268D01*
Y6803150D01*
X9175550D01*
Y6825708D01*
X9150670D01*
Y6792954D01*
X9140670D01*
Y6825708D01*
X9115788D01*
Y6803150D01*
X8602576D01*
Y6835708D01*
X9115788D01*
X9140670D01*
X9150670D01*
X9175550D01*
Y6858268D01*
X9174774Y6862169D01*
X9172564Y6865477D01*
X9169256Y6867687D01*
X9165354Y6868464D01*
X9150670D01*
Y6835708D01*
X9140670D01*
Y6868464D01*
X9125984D01*
X9122082Y6867687D01*
X9118775Y6865477D01*
X9116565Y6862169D01*
X9115788Y6858268D01*
Y6835708D01*
X8602576D01*
Y6875502D01*
X8606259Y6877962D01*
X8611080Y6885177D01*
X8611694Y6888268D01*
X8616864Y6891718D01*
X8619866Y6891008D01*
X8620133Y6890389D01*
X8621169Y6885177D01*
X8625990Y6877962D01*
X8633205Y6873142D01*
X8641715Y6871449D01*
X8650225Y6873142D01*
X8657440Y6877962D01*
X8662260Y6885177D01*
X8663953Y6893687D01*
X8666005Y6895738D01*
X8669291Y6895084D01*
X8671112Y6895447D01*
X8674648Y6891911D01*
X8674612Y6891732D01*
X8676305Y6883222D01*
X8681126Y6876007D01*
X8688340Y6871187D01*
X8696850Y6869494D01*
X8705361Y6871187D01*
X8712575Y6876007D01*
X8717396Y6883222D01*
X8718807Y6890318D01*
X8719333Y6891824D01*
X8721189Y6892248D01*
X8722436Y6891575D01*
X8726096Y6888241D01*
X8727486Y6881254D01*
X8732307Y6874039D01*
X8739521Y6869218D01*
X8748032Y6867526D01*
X8756542Y6869218D01*
X8763757Y6874039D01*
X8768577Y6881254D01*
X8770270Y6889764D01*
X8773384Y6891993D01*
X8776974Y6889764D01*
X8778667Y6881254D01*
X8783488Y6874039D01*
X8790702Y6869218D01*
X8799213Y6867526D01*
X8807723Y6869218D01*
X8814937Y6874039D01*
X8819758Y6881254D01*
X8821451Y6889764D01*
X8821431Y6889865D01*
X8824755Y6894286D01*
X8832329Y6895793D01*
X8839544Y6900614D01*
X8844364Y6907828D01*
X8846057Y6916339D01*
X8844364Y6924849D01*
X8839544Y6932063D01*
X8835861Y6934524D01*
Y7129854D01*
X8884057Y7178050D01*
X9402134D01*
X9403662Y7170369D01*
X9405184Y7166694D01*
X9409535Y7160183D01*
X9412348Y7157370D01*
X9418859Y7153019D01*
X9422535Y7151496D01*
X9430216Y7149969D01*
X9431220D01*
X9432205Y7149773D01*
X9433190Y7149969D01*
X9434194D01*
X9441875Y7151496D01*
X9445550Y7153019D01*
X9452061Y7157370D01*
X9454874Y7160183D01*
X9459225Y7166694D01*
X9460748Y7170369D01*
X9462276Y7178050D01*
Y7182029D01*
X9460748Y7189709D01*
X9459225Y7193385D01*
X9454874Y7199896D01*
X9452061Y7202709D01*
X9445550Y7207060D01*
X9441875Y7208582D01*
X9434194Y7210110D01*
X9433190D01*
X9432205Y7210306D01*
X9431220Y7210110D01*
X9430216D01*
X9422535Y7208582D01*
X9418859Y7207060D01*
X9412348Y7202709D01*
X9409535Y7199896D01*
X9405184Y7193385D01*
X9403662Y7189709D01*
X9402134Y7182029D01*
Y7178050D01*
X8884057D01*
X8929775Y7223768D01*
X8932386Y7227675D01*
X8933302Y7232284D01*
Y7253451D01*
X8940945D01*
X8945465Y7255323D01*
X8946594Y7258050D01*
X9402134D01*
X9403662Y7250369D01*
X9405184Y7246694D01*
X9409535Y7240183D01*
X9412348Y7237370D01*
X9418859Y7233019D01*
X9422535Y7231496D01*
X9430216Y7229969D01*
X9431220D01*
X9432205Y7229773D01*
X9433190Y7229969D01*
X9434194D01*
X9441875Y7231496D01*
X9445550Y7233019D01*
X9452061Y7237370D01*
X9454874Y7240183D01*
X9459225Y7246694D01*
X9460748Y7250369D01*
X9462275Y7258050D01*
Y7262028D01*
X9460748Y7269709D01*
X9459225Y7273385D01*
X9454874Y7279896D01*
X9452061Y7282709D01*
X9445550Y7287060D01*
X9441875Y7288582D01*
X9434194Y7290110D01*
X9433190D01*
X9432205Y7290306D01*
X9431220Y7290110D01*
X9430216D01*
X9422535Y7288582D01*
X9418859Y7287060D01*
X9412348Y7282709D01*
X9409535Y7279896D01*
X9405184Y7273385D01*
X9403662Y7269709D01*
X9402134Y7262028D01*
Y7258050D01*
X8946594D01*
X8947337Y7259843D01*
Y7314961D01*
X8945465Y7319481D01*
X8940945Y7321353D01*
X8901575D01*
X8897055Y7319481D01*
X8895183Y7314961D01*
Y7259843D01*
X8897055Y7255323D01*
X8901575Y7253451D01*
X8909218D01*
Y7237272D01*
X8815304Y7143358D01*
X8815271Y7143309D01*
X8810271Y7144826D01*
Y7189961D01*
X8809354Y7194569D01*
X8806743Y7198476D01*
X8745377Y7259843D01*
X8812639D01*
X8813415Y7255941D01*
X8815625Y7252633D01*
X8818933Y7250423D01*
X8822835Y7249647D01*
X8837520D01*
X8847520D01*
X8862205D01*
X8866107Y7250423D01*
X8869414Y7252633D01*
X8871624Y7255941D01*
X8872401Y7259843D01*
Y7282401D01*
X8847520D01*
Y7249647D01*
X8837520D01*
Y7282401D01*
X8812639D01*
Y7259843D01*
X8745377D01*
X8712818Y7292401D01*
X8812639D01*
X8837520D01*
X8847520D01*
X8872401D01*
Y7314961D01*
X8871624Y7318862D01*
X8869414Y7322170D01*
X8866107Y7324380D01*
X8862205Y7325157D01*
X8847520D01*
Y7292401D01*
X8837520D01*
Y7325157D01*
X8822835D01*
X8818933Y7324380D01*
X8815625Y7322170D01*
X8813415Y7318862D01*
X8812639Y7314961D01*
Y7292401D01*
X8712818D01*
X8638027Y7367193D01*
Y7698332D01*
X8645669D01*
X8650189Y7700205D01*
X8652061Y7704724D01*
Y7759843D01*
X8650189Y7764362D01*
X8645669Y7766235D01*
X8606299D01*
X8601779Y7764362D01*
X8599907Y7759843D01*
Y7704724D01*
X8601779Y7700205D01*
X8606299Y7698332D01*
X8613942D01*
Y7362205D01*
X8614859Y7357596D01*
X8617469Y7353689D01*
X8786186Y7184972D01*
Y7173864D01*
X8781186Y7172347D01*
X8780169Y7173870D01*
X8323066Y7630972D01*
Y7704724D01*
X8517363D01*
X8518139Y7700823D01*
X8520349Y7697515D01*
X8523657Y7695305D01*
X8527559Y7694529D01*
X8542244D01*
X8552244D01*
X8566929D01*
X8570831Y7695305D01*
X8574139Y7697515D01*
X8576349Y7700823D01*
X8577125Y7704724D01*
Y7727283D01*
X8552244D01*
Y7694529D01*
X8542244D01*
Y7727283D01*
X8517363D01*
Y7704724D01*
X8323066D01*
Y7737283D01*
X8517363D01*
X8542244D01*
X8552244D01*
X8577125D01*
Y7759843D01*
X8576349Y7763744D01*
X8574139Y7767052D01*
X8570831Y7769262D01*
X8566929Y7770038D01*
X8552244D01*
Y7737283D01*
X8542244D01*
Y7770038D01*
X8527559D01*
X8523657Y7769262D01*
X8520349Y7767052D01*
X8518139Y7763744D01*
X8517363Y7759843D01*
Y7737283D01*
X8323066D01*
Y8170773D01*
X8330709D01*
X8335229Y8172645D01*
X8337101Y8177165D01*
Y8232283D01*
X8335229Y8236803D01*
X8330709Y8238676D01*
X8291339D01*
X8286819Y8236803D01*
X8284946Y8232283D01*
Y8177165D01*
X8286819Y8172645D01*
X8291339Y8170773D01*
X8298981D01*
Y7625984D01*
X8299898Y7621376D01*
X8302508Y7617469D01*
X8759611Y7160366D01*
Y7145810D01*
X8754611Y7144293D01*
X8754578Y7144342D01*
X7721755Y8177165D01*
X8202403D01*
X8203179Y8173264D01*
X8205389Y8169956D01*
X8208697Y8167746D01*
X8212598Y8166969D01*
X8227284D01*
X8237284D01*
X8251968D01*
X8255870Y8167746D01*
X8259178Y8169956D01*
X8261388Y8173264D01*
X8262164Y8177165D01*
Y8199725D01*
X8237284D01*
Y8166969D01*
X8227284D01*
Y8199725D01*
X8202403D01*
Y8177165D01*
X7721755D01*
X7693555Y8205366D01*
X7689648Y8207976D01*
X7685039Y8208893D01*
X7187494D01*
Y8209725D01*
X8202403D01*
X8227284D01*
X8237284D01*
X8262164D01*
Y8232283D01*
X8261388Y8236185D01*
X8259178Y8239493D01*
X8255870Y8241703D01*
X8251968Y8242479D01*
X8237284D01*
Y8209725D01*
X8227284D01*
Y8242479D01*
X8212598D01*
X8208697Y8241703D01*
X8205389Y8239493D01*
X8203179Y8236185D01*
X8202403Y8232283D01*
Y8209725D01*
X7187494D01*
Y8224409D01*
X7185622Y8228929D01*
X7181102Y8230802D01*
X7141732D01*
X7137212Y8228929D01*
X7135340Y8224409D01*
Y8169291D01*
X7112558D01*
Y8191851D01*
X7087677D01*
Y8159095D01*
X7077677D01*
Y8191851D01*
X7052796D01*
Y8169291D01*
X6696820D01*
X6675092Y8201851D01*
X7052796D01*
X7077677D01*
X7087677D01*
X7112558D01*
Y8224409D01*
X7111782Y8228311D01*
X7109572Y8231619D01*
X7106264Y8233829D01*
X7102362Y8234605D01*
X7087677D01*
Y8201851D01*
X7077677D01*
Y8234605D01*
X7062992D01*
X7059090Y8233829D01*
X7055782Y8231619D01*
X7053572Y8228311D01*
X7052796Y8224409D01*
Y8201851D01*
X6675092D01*
X6639018Y8255906D01*
X8410833D01*
X8412525Y8247395D01*
X8417346Y8240181D01*
X8423036Y8236379D01*
Y8106299D01*
X8423799Y8102459D01*
X8425975Y8099203D01*
X9213377Y7311802D01*
X9216632Y7309626D01*
X9220472Y7308862D01*
X9521234D01*
X9522835Y7304236D01*
X9522765Y7303862D01*
X9515771Y7299190D01*
X9510951Y7291975D01*
X9509258Y7283465D01*
X9510951Y7274954D01*
X9515771Y7267740D01*
X9521461Y7263938D01*
Y6877953D01*
X9522225Y6874112D01*
X9524400Y6870857D01*
X9549963Y6845294D01*
X9548628Y6838583D01*
X9550321Y6830072D01*
X9555141Y6822858D01*
X9562356Y6818037D01*
X9570866Y6816344D01*
X9579376Y6818037D01*
X9580043Y6818483D01*
X9584453Y6816126D01*
Y6761465D01*
X9579848Y6754573D01*
X9578155Y6746063D01*
X9579848Y6737553D01*
X9584669Y6730338D01*
X9591883Y6725518D01*
X9600394Y6723825D01*
X9608904Y6725518D01*
X9616119Y6730338D01*
X9621123Y6730309D01*
X9625348Y6727486D01*
X9633858Y6725793D01*
X9642369Y6727486D01*
X9649583Y6732307D01*
X9654404Y6739521D01*
X9656097Y6748032D01*
X9654404Y6756542D01*
X9652909Y6758780D01*
X9738599D01*
X9739297Y6755269D01*
X9744118Y6748055D01*
X9751332Y6743234D01*
X9754843Y6742536D01*
X9764843D01*
X9768353Y6743234D01*
X9775567Y6748055D01*
X9780388Y6755269D01*
X9781086Y6758780D01*
X9764843D01*
Y6742536D01*
X9754843D01*
Y6758780D01*
X9738599D01*
X9652909D01*
X9649583Y6763757D01*
X9642369Y6768577D01*
X9641351Y6768780D01*
X9738599D01*
X9754843D01*
X9764843D01*
X9781086D01*
X9780388Y6772290D01*
X9775567Y6779504D01*
X9768353Y6784325D01*
X9764843Y6785023D01*
Y6768780D01*
X9754843D01*
Y6785023D01*
X9751332Y6784325D01*
X9744118Y6779504D01*
X9739297Y6772290D01*
X9738599Y6768780D01*
X9641351D01*
X9639957Y6769057D01*
Y7065866D01*
X9648048D01*
X9648746Y7062356D01*
X9653566Y7055141D01*
X9660781Y7050321D01*
X9664291Y7049622D01*
X9674291D01*
X9677802Y7050321D01*
X9685016Y7055141D01*
X9689837Y7062356D01*
X9690535Y7065866D01*
X9674291D01*
Y7049622D01*
X9664291D01*
Y7065866D01*
X9648048D01*
X9639957D01*
Y7075866D01*
X9648048D01*
X9664291D01*
X9674291D01*
X9690535D01*
X9689837Y7079376D01*
X9685016Y7086591D01*
X9677802Y7091412D01*
X9674291Y7092110D01*
Y7075866D01*
X9664291D01*
Y7092110D01*
X9660781Y7091412D01*
X9653566Y7086591D01*
X9648746Y7079376D01*
X9648048Y7075866D01*
X9639957D01*
Y7106458D01*
X9645646Y7110259D01*
X9650467Y7117474D01*
X9652160Y7125984D01*
X9650467Y7134494D01*
X9645646Y7141709D01*
X9638432Y7146530D01*
X9629921Y7148223D01*
X9621411Y7146530D01*
X9614196Y7141709D01*
X9609376Y7134494D01*
X9607683Y7125984D01*
X9609376Y7117474D01*
X9614196Y7110259D01*
X9619886Y7106458D01*
Y6768031D01*
X9615364Y6763773D01*
X9613129Y6763786D01*
X9608904Y6766608D01*
X9604523Y6767480D01*
Y6848367D01*
X9603759Y6852208D01*
X9601584Y6855463D01*
X9600586Y6856461D01*
Y7202444D01*
X9601506Y7203199D01*
X9608180Y7202211D01*
X9609535Y7200183D01*
X9612348Y7197370D01*
X9618859Y7193019D01*
X9622535Y7191496D01*
X9630216Y7189969D01*
X9631220D01*
X9632205Y7189773D01*
X9633190Y7189969D01*
X9634194D01*
X9641875Y7191496D01*
X9645550Y7193019D01*
X9652061Y7197370D01*
X9654874Y7200183D01*
X9659225Y7206694D01*
X9660748Y7210369D01*
X9662275Y7218050D01*
Y7222029D01*
X9660748Y7229709D01*
X9659225Y7233385D01*
X9654874Y7239896D01*
X9652061Y7242709D01*
X9645550Y7247060D01*
X9641875Y7248582D01*
X9634194Y7250110D01*
X9633190D01*
X9632205Y7250306D01*
X9631220Y7250110D01*
X9630216D01*
X9622535Y7248582D01*
X9618859Y7247060D01*
X9612348Y7242709D01*
X9609535Y7239896D01*
X9608180Y7237868D01*
X9601506Y7236880D01*
X9600586Y7237635D01*
Y7267875D01*
X9606276Y7271677D01*
X9611097Y7278891D01*
X9612790Y7287402D01*
X9611097Y7295912D01*
X9606276Y7303127D01*
X9605175Y7303862D01*
X9606692Y7308862D01*
X9633639D01*
X9793114Y7149387D01*
Y6629763D01*
X9787425Y6625961D01*
X9782604Y6618746D01*
X9780911Y6610236D01*
X9782604Y6601726D01*
X9787425Y6594511D01*
X9793114Y6590710D01*
Y6476219D01*
X9787425Y6472418D01*
X9782604Y6465203D01*
X9780911Y6456693D01*
X9782604Y6448183D01*
X9787425Y6440968D01*
X9794639Y6436147D01*
X9803150Y6434455D01*
X9811660Y6436147D01*
X9818874Y6440968D01*
X9823695Y6448183D01*
X9825388Y6456693D01*
X9823695Y6465203D01*
X9818874Y6472418D01*
X9813185Y6476219D01*
Y6526496D01*
X9868520D01*
X9869218Y6522986D01*
X9874039Y6515771D01*
X9881254Y6510951D01*
X9884764Y6510252D01*
X9894764D01*
X9898274Y6510951D01*
X9905489Y6515771D01*
X9910309Y6522986D01*
X9911007Y6526496D01*
X9894764D01*
Y6510252D01*
X9884764D01*
Y6526496D01*
X9868520D01*
X9813185D01*
Y6536496D01*
X9868520D01*
X9884764D01*
X9894764D01*
X9911007D01*
X9910309Y6540006D01*
X9905489Y6547221D01*
X9898274Y6552042D01*
X9894764Y6552740D01*
Y6536496D01*
X9884764D01*
Y6552740D01*
X9881254Y6552042D01*
X9874039Y6547221D01*
X9869218Y6540006D01*
X9868520Y6536496D01*
X9813185D01*
Y6590710D01*
X9818874Y6594511D01*
X9823695Y6601726D01*
X9825388Y6610236D01*
X9823695Y6618746D01*
X9818874Y6625961D01*
X9813185Y6629763D01*
Y6732283D01*
X9934455D01*
X9936147Y6723773D01*
X9940968Y6716559D01*
X9948183Y6711738D01*
X9948626Y6711650D01*
Y6525152D01*
X9942936Y6521351D01*
X9938116Y6514136D01*
X9936423Y6505626D01*
X9938116Y6497116D01*
X9942936Y6489901D01*
X9950151Y6485080D01*
X9958661Y6483388D01*
X9967172Y6485080D01*
X9974386Y6489901D01*
X9979207Y6497116D01*
X9980900Y6505626D01*
X9979207Y6514136D01*
X9974386Y6521351D01*
X9968697Y6525152D01*
Y6714072D01*
X9972418Y6716559D01*
X9977238Y6723773D01*
X9978931Y6732283D01*
X9977238Y6740794D01*
X9972418Y6748008D01*
X9965203Y6752829D01*
X9956693Y6754522D01*
X9948183Y6752829D01*
X9940968Y6748008D01*
X9936147Y6740794D01*
X9934455Y6732283D01*
X9813185D01*
Y6956693D01*
X9832092D01*
X9833785Y6948183D01*
X9838606Y6940968D01*
X9845820Y6936147D01*
X9854331Y6934455D01*
X9861823Y6935945D01*
X9884268D01*
X9884966Y6932435D01*
X9889787Y6925220D01*
X9897002Y6920399D01*
X9900512Y6919701D01*
X9910512D01*
X9914022Y6920399D01*
X9921237Y6925220D01*
X9926057Y6932435D01*
X9926756Y6935945D01*
X9910512D01*
Y6919701D01*
X9900512D01*
Y6935945D01*
X9884268D01*
X9861823D01*
X9862841Y6936147D01*
X9870056Y6940968D01*
X9873381Y6945945D01*
X9884268D01*
X9900512D01*
X9910512D01*
X9926756D01*
X9926057Y6949455D01*
X9921237Y6956670D01*
X9914022Y6961490D01*
X9910512Y6962189D01*
Y6945945D01*
X9900512D01*
Y6962189D01*
X9897002Y6961490D01*
X9889787Y6956670D01*
X9884966Y6949455D01*
X9884268Y6945945D01*
X9873381D01*
X9874876Y6948183D01*
X9876569Y6956693D01*
X9874876Y6965203D01*
X9870056Y6972418D01*
X9864366Y6976219D01*
Y7015907D01*
X9870056Y7019708D01*
X9874876Y7026923D01*
X9876569Y7035433D01*
X9874876Y7043943D01*
X9872671Y7047244D01*
X10033111D01*
X10033887Y7043342D01*
X10036097Y7040034D01*
X10039405Y7037824D01*
X10043307Y7037048D01*
X10057992D01*
X10067992D01*
X10082677D01*
X10086579Y7037824D01*
X10089887Y7040034D01*
X10092097Y7043342D01*
X10092873Y7047244D01*
X10115655D01*
X10117527Y7042724D01*
X10122047Y7040852D01*
X10161417D01*
X10165937Y7042724D01*
X10167809Y7047244D01*
Y7062761D01*
X10274539D01*
X10377721Y6959579D01*
Y6262280D01*
X10374039Y6259819D01*
X10369218Y6252605D01*
X10367526Y6244094D01*
X10369218Y6235584D01*
X10374039Y6228370D01*
X10381254Y6223549D01*
X10389764Y6221856D01*
X10398274Y6223549D01*
X10405489Y6228370D01*
X10410309Y6235584D01*
X10412002Y6244094D01*
X10410309Y6252605D01*
X10405489Y6259819D01*
X10401806Y6262280D01*
Y6964567D01*
X10400890Y6969175D01*
X10398279Y6973082D01*
X10320180Y7051181D01*
X10631536D01*
X10632312Y7047279D01*
X10634523Y7043972D01*
X10637831Y7041761D01*
X10641732Y7040985D01*
X10656417D01*
X10666417D01*
X10681102D01*
X10685004Y7041761D01*
X10688312Y7043972D01*
X10690522Y7047279D01*
X10691298Y7051181D01*
X10714080D01*
X10715953Y7046661D01*
X10720472Y7044789D01*
X10735989D01*
Y6266217D01*
X10732307Y6263757D01*
X10727486Y6256542D01*
X10725793Y6248032D01*
X10727486Y6239521D01*
X10732307Y6232307D01*
X10739521Y6227486D01*
X10748032Y6225793D01*
X10756542Y6227486D01*
X10763757Y6232307D01*
X10768577Y6239521D01*
X10770270Y6248032D01*
X10768577Y6256542D01*
X10763757Y6263757D01*
X10760074Y6266217D01*
Y7044885D01*
X10764362Y7046661D01*
X10766235Y7051181D01*
X11163032D01*
X11163809Y7047279D01*
X11166019Y7043972D01*
X11169327Y7041761D01*
X11173228Y7040985D01*
X11187913D01*
X11197913D01*
X11212598D01*
X11216500Y7041761D01*
X11219808Y7043972D01*
X11222018Y7047279D01*
X11222794Y7051181D01*
X11245577D01*
X11247449Y7046661D01*
X11251969Y7044789D01*
X11259611D01*
Y6285902D01*
X11255929Y6283441D01*
X11251108Y6276227D01*
X11249415Y6267717D01*
X11251108Y6259206D01*
X11255929Y6251992D01*
X11263143Y6247171D01*
X11271654Y6245478D01*
X11280164Y6247171D01*
X11287378Y6251992D01*
X11292199Y6259206D01*
X11293892Y6267717D01*
X11292199Y6276227D01*
X11287378Y6283441D01*
X11283696Y6285902D01*
Y7044789D01*
X11291339D01*
X11295858Y7046661D01*
X11297731Y7051181D01*
Y7106299D01*
X11295858Y7110819D01*
X11291339Y7112691D01*
X11251969D01*
X11247449Y7110819D01*
X11245577Y7106299D01*
Y7051181D01*
X11222794D01*
Y7073740D01*
X11197913D01*
Y7040985D01*
X11187913D01*
Y7073740D01*
X11163032D01*
Y7051181D01*
X10766235D01*
Y7083740D01*
X11163032D01*
X11187913D01*
X11197913D01*
X11222794D01*
Y7106299D01*
X11222018Y7110201D01*
X11219808Y7113509D01*
X11216500Y7115719D01*
X11212598Y7116495D01*
X11197913D01*
Y7083740D01*
X11187913D01*
Y7116495D01*
X11173228D01*
X11169327Y7115719D01*
X11166019Y7113509D01*
X11163809Y7110201D01*
X11163032Y7106299D01*
Y7083740D01*
X10766235D01*
Y7106299D01*
X10764362Y7110819D01*
X10759843Y7112691D01*
X10720472D01*
X10715953Y7110819D01*
X10714080Y7106299D01*
Y7051181D01*
X10691298D01*
Y7073740D01*
X10666417D01*
Y7040985D01*
X10656417D01*
Y7073740D01*
X10631536D01*
Y7051181D01*
X10320180D01*
X10288043Y7083318D01*
X10287412Y7083740D01*
X10631536D01*
X10656417D01*
X10666417D01*
X10691298D01*
Y7106299D01*
X10690522Y7110201D01*
X10688312Y7113509D01*
X10685004Y7115719D01*
X10681102Y7116495D01*
X10666417D01*
Y7083740D01*
X10656417D01*
Y7116495D01*
X10641732D01*
X10637831Y7115719D01*
X10634523Y7113509D01*
X10632312Y7110201D01*
X10631536Y7106299D01*
Y7083740D01*
X10287412D01*
X10284136Y7085929D01*
X10279527Y7086845D01*
X10167809D01*
Y7102362D01*
X10165937Y7106882D01*
X10161417Y7108754D01*
X10122047D01*
X10117527Y7106882D01*
X10115655Y7102362D01*
Y7047244D01*
X10092873D01*
Y7069803D01*
X10067992D01*
Y7037048D01*
X10057992D01*
Y7069803D01*
X10033111D01*
Y7047244D01*
X9872671D01*
X9870056Y7051158D01*
X9862841Y7055979D01*
X9854331Y7057671D01*
X9845820Y7055979D01*
X9838606Y7051158D01*
X9833785Y7043943D01*
X9832092Y7035433D01*
X9833785Y7026923D01*
X9838606Y7019708D01*
X9844295Y7015907D01*
Y6976219D01*
X9838606Y6972418D01*
X9833785Y6965203D01*
X9832092Y6956693D01*
X9813185D01*
Y7079803D01*
X10033111D01*
X10057992D01*
X10067992D01*
X10092873D01*
Y7102362D01*
X10092097Y7106264D01*
X10089887Y7109572D01*
X10086579Y7111782D01*
X10082677Y7112558D01*
X10067992D01*
Y7079803D01*
X10057992D01*
Y7112558D01*
X10043307D01*
X10039405Y7111782D01*
X10036097Y7109572D01*
X10033887Y7106264D01*
X10033111Y7102362D01*
Y7079803D01*
X9813185D01*
Y7153543D01*
X9812421Y7157384D01*
X9810246Y7160639D01*
X9644891Y7325994D01*
X9641636Y7328169D01*
X9637795Y7328933D01*
X9224629D01*
X8443106Y8110456D01*
Y8236379D01*
X8448796Y8240181D01*
X8453616Y8247395D01*
X8455309Y8255906D01*
X8453616Y8264416D01*
X8448796Y8271630D01*
X8441581Y8276451D01*
X8433071Y8278144D01*
X8424561Y8276451D01*
X8417346Y8271630D01*
X8412525Y8264416D01*
X8410833Y8255906D01*
X6639018D01*
X6565519Y8366041D01*
X6567875Y8370451D01*
X8581210Y8372620D01*
X9259740Y7356566D01*
X9260451Y7355854D01*
X9261010Y7355018D01*
X9261844Y7354461D01*
X9262553Y7353752D01*
X9263482Y7353367D01*
X9264318Y7352808D01*
X9265301Y7352612D01*
X9266228Y7352228D01*
X9267233D01*
X9268219Y7352032D01*
X11489137D01*
X11489464Y5908348D01*
X10246190Y5907833D01*
X10245207Y5907637D01*
X10244205D01*
X10243275Y5907252D01*
X10242288Y5907056D01*
X10241455Y5906498D01*
X10240530Y5906115D01*
X10239818Y5905404D01*
X10238981Y5904844D01*
X10238425Y5904011D01*
X10237717Y5903303D01*
X10237332Y5902373D01*
X10236772Y5901535D01*
X10236577Y5900553D01*
X10236194Y5899627D01*
Y5898621D01*
X10235998Y5897633D01*
X10236194Y5896651D01*
Y5895649D01*
X10236579Y5894719D01*
X10236776Y5893732D01*
X10237332Y5892899D01*
X10237716Y5891973D01*
X10899342Y4901607D01*
X10896984Y4897197D01*
X6572456D01*
X6570100Y4901607D01*
X6643804Y5011811D01*
X10292954D01*
X10293730Y5007909D01*
X10295940Y5004602D01*
X10299248Y5002391D01*
X10303150Y5001615D01*
X10317834D01*
X10327834D01*
X10342520D01*
X10346421Y5002391D01*
X10349729Y5004602D01*
X10351939Y5007909D01*
X10352716Y5011811D01*
Y5034370D01*
X10327834D01*
Y5001615D01*
X10317834D01*
Y5034370D01*
X10292954D01*
Y5011811D01*
X6643804D01*
X6664869Y5043307D01*
X8218151D01*
X8218927Y5039405D01*
X8221137Y5036097D01*
X8224445Y5033887D01*
X8228346Y5033111D01*
X8243031D01*
X8253031D01*
X8267717D01*
X8271618Y5033887D01*
X8274926Y5036097D01*
X8277136Y5039405D01*
X8277912Y5043307D01*
X8300695D01*
X8302567Y5038787D01*
X8307087Y5036915D01*
X8346457D01*
X8350977Y5038787D01*
X8352849Y5043307D01*
Y5044370D01*
X10292954D01*
X10317834D01*
X10327834D01*
X10352716D01*
Y5066929D01*
X10351939Y5070831D01*
X10349729Y5074139D01*
X10346421Y5076349D01*
X10342520Y5077125D01*
X10327834D01*
Y5044370D01*
X10317834D01*
Y5077125D01*
X10303150D01*
X10299248Y5076349D01*
X10295940Y5074139D01*
X10293730Y5070831D01*
X10292954Y5066929D01*
Y5044370D01*
X8352849D01*
Y5098425D01*
X8350977Y5102945D01*
X8346457Y5104817D01*
X8338814D01*
Y5460630D01*
X8501615D01*
X8502391Y5456728D01*
X8504601Y5453420D01*
X8507909Y5451210D01*
X8511811Y5450434D01*
X8526496D01*
X8536496D01*
X8551181D01*
X8555083Y5451210D01*
X8558391Y5453420D01*
X8560601Y5456728D01*
X8561377Y5460630D01*
Y5483189D01*
X8536496D01*
Y5450434D01*
X8526496D01*
Y5483189D01*
X8501615D01*
Y5460630D01*
X8338814D01*
Y5493189D01*
X8501615D01*
X8526496D01*
X8536496D01*
X8561377D01*
Y5515748D01*
X8560601Y5519650D01*
X8558391Y5522958D01*
X8555083Y5525168D01*
X8551181Y5525944D01*
X8536496D01*
Y5493189D01*
X8526496D01*
Y5525944D01*
X8511811D01*
X8507909Y5525168D01*
X8504601Y5522958D01*
X8502391Y5519650D01*
X8501615Y5515748D01*
Y5493189D01*
X8338814D01*
Y5754854D01*
X8780151Y6196192D01*
X8782170Y6199213D01*
X8786405Y6198680D01*
X8787170Y6198382D01*
Y6008925D01*
X8601721Y5823476D01*
X8599110Y5819569D01*
X8598194Y5814960D01*
Y5522140D01*
X8590551D01*
X8586031Y5520268D01*
X8584159Y5515748D01*
Y5460630D01*
X8586031Y5456110D01*
X8590551Y5454238D01*
X8629921D01*
X8634441Y5456110D01*
X8634683Y5456693D01*
X10009489D01*
X10010265Y5452791D01*
X10012476Y5449483D01*
X10015783Y5447273D01*
X10019685Y5446497D01*
X10034370D01*
X10044370D01*
X10059055D01*
X10062957Y5447273D01*
X10066265Y5449483D01*
X10068475Y5452791D01*
X10069251Y5456693D01*
Y5479252D01*
X10044370D01*
Y5446497D01*
X10034370D01*
Y5479252D01*
X10009489D01*
Y5456693D01*
X8634683D01*
X8636313Y5460630D01*
Y5489252D01*
X10009489D01*
X10034370D01*
X10044370D01*
X10069251D01*
Y5511811D01*
X10068475Y5515713D01*
X10066265Y5519021D01*
X10062957Y5521231D01*
X10059055Y5522007D01*
X10044370D01*
Y5489252D01*
X10034370D01*
Y5522007D01*
X10019685D01*
X10015783Y5521231D01*
X10012476Y5519021D01*
X10010265Y5515713D01*
X10009489Y5511811D01*
Y5489252D01*
X8636313D01*
Y5515748D01*
X8634441Y5520268D01*
X8629921Y5522140D01*
X8622279D01*
Y5733079D01*
X9704158D01*
X9705511Y5722801D01*
X9705940Y5721538D01*
X9706200Y5720230D01*
X9710167Y5710653D01*
X9710908Y5709544D01*
X9711498Y5708348D01*
X9717808Y5700123D01*
X9718811Y5699244D01*
X9719691Y5698241D01*
X9727915Y5691931D01*
X9729111Y5691341D01*
X9730220Y5690600D01*
X9739797Y5686633D01*
X9741105Y5686373D01*
X9742368Y5685944D01*
X9752646Y5684591D01*
X9753317Y5684635D01*
X9753976Y5684504D01*
X9754636Y5684635D01*
X9755307Y5684591D01*
X9765585Y5685944D01*
X9766848Y5686373D01*
X9768156Y5686633D01*
X9777733Y5690600D01*
X9778842Y5691341D01*
X9780038Y5691931D01*
X9788262Y5698241D01*
X9789142Y5699244D01*
X9790144Y5700123D01*
X9796455Y5708348D01*
X9797045Y5709544D01*
X9797786Y5710653D01*
X9801753Y5720230D01*
X9802013Y5721538D01*
X9802442Y5722801D01*
X9803795Y5733079D01*
X9803708Y5734409D01*
X9803795Y5735740D01*
X9802442Y5746018D01*
X9802013Y5747281D01*
X9801753Y5748589D01*
X9797786Y5758166D01*
X9797045Y5759275D01*
X9796455Y5760471D01*
X9790144Y5768695D01*
X9789142Y5769575D01*
X9788262Y5770578D01*
X9780038Y5776888D01*
X9778842Y5777478D01*
X9777733Y5778219D01*
X9768156Y5782186D01*
X9766848Y5782446D01*
X9765585Y5782875D01*
X9755307Y5784228D01*
X9754636Y5784184D01*
X9753976Y5784315D01*
X9753317Y5784184D01*
X9752646Y5784228D01*
X9742368Y5782875D01*
X9741105Y5782446D01*
X9739797Y5782186D01*
X9730220Y5778219D01*
X9729111Y5777478D01*
X9727915Y5776888D01*
X9719691Y5770578D01*
X9718811Y5769575D01*
X9717808Y5768695D01*
X9711498Y5760471D01*
X9710908Y5759275D01*
X9710167Y5758166D01*
X9706200Y5748589D01*
X9705940Y5747281D01*
X9705511Y5746018D01*
X9704158Y5735740D01*
X9704245Y5734409D01*
X9704158Y5733079D01*
X8622279D01*
Y5809972D01*
X8686322Y5874016D01*
X8796891D01*
X8797667Y5870114D01*
X8799877Y5866806D01*
X8803185Y5864596D01*
X8807087Y5863820D01*
X8821771D01*
X8831771D01*
X8846457D01*
X8850358Y5864596D01*
X8853666Y5866806D01*
X8855876Y5870114D01*
X8856653Y5874016D01*
Y5896575D01*
X8831771D01*
Y5863820D01*
X8821771D01*
Y5896575D01*
X8796891D01*
Y5874016D01*
X8686322D01*
X8718881Y5906575D01*
X8796891D01*
X8821771D01*
X8831771D01*
X8856653D01*
Y5929134D01*
X8855876Y5933036D01*
X8853666Y5936343D01*
X8850358Y5938554D01*
X8846457Y5939330D01*
X8831771D01*
Y5906575D01*
X8821771D01*
Y5939330D01*
X8807087D01*
X8803185Y5938554D01*
X8799877Y5936343D01*
X8797667Y5933036D01*
X8796891Y5929134D01*
Y5906575D01*
X8718881D01*
X8807728Y5995422D01*
X8810338Y5999329D01*
X8811255Y6003937D01*
Y6458193D01*
X8814937Y6460653D01*
X8819758Y6467868D01*
X8821451Y6476378D01*
X8879336D01*
X8881029Y6467868D01*
X8885850Y6460653D01*
X8889532Y6458193D01*
Y5935526D01*
X8885827D01*
X8881307Y5933654D01*
X8879435Y5929134D01*
Y5874016D01*
X8881307Y5869496D01*
X8885827Y5867624D01*
X8925197D01*
X8929717Y5869496D01*
X8931589Y5874016D01*
Y5877953D01*
X9729962D01*
X9730738Y5874051D01*
X9732948Y5870743D01*
X9736256Y5868533D01*
X9740157Y5867757D01*
X9754843D01*
X9764843D01*
X9779528D01*
X9783429Y5868533D01*
X9786737Y5870743D01*
X9788947Y5874051D01*
X9789723Y5877953D01*
X9812506D01*
X9814378Y5873433D01*
X9818898Y5871561D01*
X9858268D01*
X9862788Y5873433D01*
X9864660Y5877953D01*
Y5933071D01*
X9862788Y5937591D01*
X9858268Y5939463D01*
X9850625D01*
Y6311024D01*
X10032880D01*
X10034573Y6302513D01*
X10039393Y6295299D01*
X10043076Y6292838D01*
Y5665355D01*
X10043992Y5660746D01*
X10046603Y5656839D01*
X10106068Y5597374D01*
Y5518203D01*
X10098425D01*
X10093905Y5516331D01*
X10092033Y5511811D01*
Y5456693D01*
X10093905Y5452173D01*
X10098425Y5450301D01*
X10137795D01*
X10142315Y5452173D01*
X10144187Y5456693D01*
Y5511811D01*
X10142315Y5516331D01*
X10137795Y5518203D01*
X10130153D01*
Y5602362D01*
X10129236Y5606970D01*
X10126625Y5610878D01*
X10067160Y5670343D01*
Y6263780D01*
X10099809D01*
X10101502Y6255269D01*
X10106322Y6248055D01*
X10110005Y6245594D01*
Y5767717D01*
X10110921Y5763108D01*
X10113532Y5759201D01*
X10389532Y5483201D01*
Y5073321D01*
X10381890D01*
X10377370Y5071449D01*
X10375498Y5066929D01*
Y5011811D01*
X10377370Y5007291D01*
X10381890Y5005419D01*
X10421260D01*
X10425780Y5007291D01*
X10427652Y5011811D01*
Y5066929D01*
X10425780Y5071449D01*
X10421260Y5073321D01*
X10413617D01*
Y5488189D01*
X10412701Y5492797D01*
X10410090Y5496705D01*
X10134090Y5772705D01*
Y6157480D01*
X10647284D01*
X10648060Y6153579D01*
X10650271Y6150271D01*
X10653579Y6148061D01*
X10657480Y6147284D01*
X10672165D01*
X10682165D01*
X10696850D01*
X10700752Y6148061D01*
X10704060Y6150271D01*
X10706270Y6153579D01*
X10707046Y6157480D01*
X10729828D01*
X10731701Y6152960D01*
X10736220Y6151088D01*
X10743863D01*
Y6104800D01*
X10740181Y6102339D01*
X10735360Y6095124D01*
X10733667Y6086614D01*
X10735360Y6078104D01*
X10740181Y6070889D01*
X10747395Y6066069D01*
X10755906Y6064376D01*
X10764416Y6066069D01*
X10771630Y6070889D01*
X10776451Y6078104D01*
X10778144Y6086614D01*
X10776451Y6095124D01*
X10771630Y6102339D01*
X10767948Y6104800D01*
Y6151088D01*
X10775591D01*
X10780110Y6152960D01*
X10781983Y6157480D01*
X11166969D01*
X11167746Y6153579D01*
X11169956Y6150271D01*
X11173264Y6148061D01*
X11177165Y6147284D01*
X11191850D01*
X11201850D01*
X11216535D01*
X11220437Y6148061D01*
X11223745Y6150271D01*
X11225955Y6153579D01*
X11226731Y6157480D01*
X11249514D01*
X11251386Y6152960D01*
G37*
D13*
X7277008Y5506457D03*
Y5371496D03*
X7200787Y5437008D03*
X9759843Y6763780D03*
X9507874Y6507874D03*
X9958661Y6505626D03*
X9956693Y6732283D03*
X9889764Y6531496D03*
X9854331Y7035433D03*
Y6956693D03*
X9905512Y6940945D03*
X9488189Y6874016D03*
X9838583Y6346457D03*
X8590534Y6893687D03*
X8641715D03*
X8173228Y7047244D03*
Y6893701D03*
X10055118Y6311024D03*
X10122047Y6263780D03*
X8771636Y6456680D03*
X8799213Y6476378D03*
X8901575D03*
X9358268Y6551181D03*
X10389764Y6244094D03*
X10748031Y6248031D03*
X11271654Y6267717D03*
X9803150Y6456693D03*
X10755906Y6086614D03*
X11279528Y6039370D03*
X9224409Y6909449D03*
X8823819Y6916339D03*
X8799213Y6889764D03*
X8771654Y6917323D03*
X8748031Y6889764D03*
X8720472Y6917323D03*
X8696850Y6891732D03*
X8062992Y6897638D03*
Y7062992D03*
X8669291Y6917323D03*
X8618110D03*
X8562992D03*
X8527559Y6960630D03*
X7173228Y5196850D03*
X8515748Y6775591D03*
X8433071Y8255906D03*
X9803150Y6610236D03*
X9633858Y6748031D03*
X9590551Y7287402D03*
X9600394Y6746063D03*
X9531496Y7283465D03*
X9570866Y6838583D03*
X9629921Y7125984D03*
X9669291Y7070866D03*
X8291339Y6700787D03*
X8417323Y6984252D03*
X8322835D03*
X8527559Y6677165D03*
Y6401575D03*
X8440945Y6433071D03*
D14*
X10755906Y6185039D03*
X10677165D03*
X11275591D03*
X11196850D03*
X10740157Y7078740D03*
X10661417D03*
X11271654D03*
X11192913D03*
X10401575Y5039370D03*
X10322835D03*
X10141732Y7074803D03*
X10062992D03*
X9838583Y5905512D03*
X9759843D03*
X10118110Y5484252D03*
X10039370D03*
X8610236Y5488189D03*
X8531496D03*
X8326772Y5070866D03*
X8248031D03*
X9358268Y6366142D03*
X9279528D03*
X8905512Y5901575D03*
X8826772D03*
X8921260Y7287402D03*
X8842520D03*
X9224409Y6830709D03*
X9145669D03*
X8311024Y8204724D03*
X8232283D03*
X8625984Y7732283D03*
X8547244D03*
X7460630Y7736220D03*
X7381890D03*
X7161417Y8196850D03*
X7082677D03*
X8062992Y6822835D03*
X7984252D03*
X7775591Y7263780D03*
X7696850D03*
X7799213Y6035433D03*
X7720472D03*
X8062992Y6417323D03*
X7984252D03*
X7173228Y5122047D03*
X7094488D03*
X7488189Y5574803D03*
X7409449D03*
%LPD*%
M02*