G04 Generated by UcamX,v2023.12-240208 on 2025.7.25*
%FSLAX26Y26*%
%MOIN*%
%ADD10C,0.039370*%
%ADD11C,0.078740*%
%ADD12C,0.011811*%
G04 layer name: pth*
%LPD*%
D10*
X9432205Y7180039D03*
Y7260039D03*
X9632205Y7220039D03*
X9432205Y7180039D03*
Y7260039D03*
X9632205Y7220039D03*
D11*
X9753976Y5734409D03*
X9753976D03*
D12*
X7277008Y5506457D03*
Y5371496D03*
X7200787Y5437008D03*
X9759843Y6763780D03*
X9507874Y6507874D03*
X9958661Y6505626D03*
X9956693Y6732283D03*
X9889764Y6531496D03*
X9854331Y7035433D03*
Y6956693D03*
X9905512Y6940945D03*
X9488189Y6874016D03*
X9838583Y6346457D03*
X8590534Y6893687D03*
X8641715D03*
X8173228Y7047244D03*
Y6893701D03*
X10055118Y6311024D03*
X10122047Y6263780D03*
X8771636Y6456680D03*
X8799213Y6476378D03*
X8901575D03*
X9358268Y6551181D03*
X10389764Y6244094D03*
X10748031Y6248031D03*
X11271654Y6267717D03*
X9803150Y6456693D03*
X10755906Y6086614D03*
X11279528Y6039370D03*
X9224409Y6909449D03*
X8823819Y6916339D03*
X8799213Y6889764D03*
X8771654Y6917323D03*
X8748031Y6889764D03*
X8720472Y6917323D03*
X8696850Y6891732D03*
X8062992Y6897638D03*
Y7062992D03*
X8669291Y6917323D03*
X8618110D03*
X8562992D03*
X8527559Y6960630D03*
X7173228Y5196850D03*
X8515748Y6775591D03*
X8433071Y8255906D03*
X9803150Y6610236D03*
X9633858Y6748031D03*
X9590551Y7287402D03*
X9600394Y6746063D03*
X9531496Y7283465D03*
X9570866Y6838583D03*
X9629921Y7125984D03*
X9669291Y7070866D03*
X8291339Y6700787D03*
X8417323Y6984252D03*
X8322835D03*
X8527559Y6677165D03*
Y6401575D03*
X8440945Y6433071D03*
X7277008Y5506457D03*
Y5371496D03*
X7200787Y5437008D03*
X9759843Y6763780D03*
X9507874Y6507874D03*
X9958661Y6505626D03*
X9956693Y6732283D03*
X9889764Y6531496D03*
X9854331Y7035433D03*
Y6956693D03*
X9905512Y6940945D03*
X9488189Y6874016D03*
X9838583Y6346457D03*
X8590534Y6893687D03*
X8641715D03*
X8173228Y7047244D03*
Y6893701D03*
X10055118Y6311024D03*
X10122047Y6263780D03*
X8771636Y6456680D03*
X8799213Y6476378D03*
X8901575D03*
X9358268Y6551181D03*
X10389764Y6244094D03*
X10748031Y6248031D03*
X11271654Y6267717D03*
X9803150Y6456693D03*
X10755906Y6086614D03*
X11279528Y6039370D03*
X9224409Y6909449D03*
X8823819Y6916339D03*
X8799213Y6889764D03*
X8771654Y6917323D03*
X8748031Y6889764D03*
X8720472Y6917323D03*
X8696850Y6891732D03*
X8062992Y6897638D03*
Y7062992D03*
X8669291Y6917323D03*
X8618110D03*
X8562992D03*
X8527559Y6960630D03*
X7173228Y5196850D03*
X8515748Y6775591D03*
X8433071Y8255906D03*
X9803150Y6610236D03*
X9633858Y6748031D03*
X9590551Y7287402D03*
X9600394Y6746063D03*
X9531496Y7283465D03*
X9570866Y6838583D03*
X9629921Y7125984D03*
X9669291Y7070866D03*
X8291339Y6700787D03*
X8417323Y6984252D03*
X8322835D03*
X8527559Y6677165D03*
Y6401575D03*
X8440945Y6433071D03*
%LPD*%
M02*