G04 Generated by UcamX,v2023.12-240208 on 2025.7.25*
%FSLAX26Y26*%
%MOIN*%
%ADD10R,0.056102X0.053150*%
%ADD11R,0.250000X0.200000*%
%ADD12R,0.035433X0.031496*%
%ADD13R,0.031496X0.031496*%
%ADD14R,0.007874X0.066929*%
%ADD15R,0.051181X0.074803*%
%ADD16R,0.061024X0.039370*%
%ADD17O,0.070866X0.011811*%
%ADD18O,0.011811X0.070866*%
%ADD19R,0.031496X0.035433*%
%ADD20R,0.106299X0.082677*%
%ADD21R,0.047244X0.070866*%
%ADD22R,0.023622X0.045276*%
G04 layer name: paste-bot*
%LPD*%
D10*
X8617618Y6651575D03*
X8617618Y6729331D03*
X8699311Y6729331D03*
X8699311Y6651575D03*
D11*
X7708110Y5122992D03*
Y5552520D03*
X9878976D03*
Y5122992D03*
D12*
X9551181Y6452756D03*
Y6507874D03*
X10216535Y6625984D03*
Y6681102D03*
X9996063Y6547244D03*
Y6492126D03*
Y6767717D03*
Y6712598D03*
X9952756Y6901575D03*
Y6846457D03*
X9937008Y6645669D03*
Y6590551D03*
X9854331Y6901575D03*
Y6846457D03*
D13*
X9996063Y6606299D03*
Y6669291D03*
X8488189Y6405512D03*
Y6468504D03*
X9783465Y6956693D03*
X9720472D03*
X9574803Y7070866D03*
X9511811D03*
X8488189Y6936735D03*
X8425197D03*
X9905512Y6905512D03*
Y6842520D03*
X9925197Y6531496D03*
Y6468504D03*
X8228346Y6651742D03*
X8291339D03*
D14*
X8465551Y6838583D03*
X8491142D03*
X8516732D03*
X8542323D03*
X8567913D03*
X8593504D03*
X8619094D03*
X8644685D03*
X8670276D03*
X8695866D03*
X8721457D03*
X8747047D03*
X8772638D03*
X8798228D03*
X8823819D03*
X8849409D03*
Y6547244D03*
X8823819D03*
X8798228D03*
X8772638D03*
X8747047D03*
X8721457D03*
X8695866D03*
X8670276D03*
X8644685D03*
X8619094D03*
X8593504D03*
X8567913D03*
X8542323D03*
X8516732D03*
X8491142D03*
X8465551D03*
D15*
X10072835Y6901575D03*
X10289370D03*
Y6775591D03*
X10072835D03*
D16*
X7979331Y8259843D03*
Y8133858D03*
X8186024Y8259843D03*
Y8133858D03*
D17*
X9864173Y6785433D03*
Y6765748D03*
Y6746063D03*
Y6726378D03*
Y6706693D03*
Y6687008D03*
Y6667323D03*
Y6647638D03*
Y6627953D03*
Y6608268D03*
Y6588583D03*
Y6568898D03*
X9545276D03*
Y6588583D03*
Y6608268D03*
Y6627953D03*
Y6647638D03*
Y6667323D03*
Y6687008D03*
Y6706693D03*
Y6726378D03*
Y6746063D03*
Y6765748D03*
Y6785433D03*
D18*
X9812992Y6517717D03*
X9793307D03*
X9773622D03*
X9753937D03*
X9734252D03*
X9714567D03*
X9694882D03*
X9675197D03*
X9655512D03*
X9635827D03*
X9616142D03*
X9596457D03*
Y6836614D03*
X9616142D03*
X9635827D03*
X9655512D03*
X9675197D03*
X9694882D03*
X9714567D03*
X9734252D03*
X9753937D03*
X9773622D03*
X9793307D03*
X9812992D03*
D19*
X9472441Y6822834D03*
X9527559D03*
D20*
X7277008Y5436535D03*
Y5184567D03*
D21*
X10153543Y6523622D03*
Y6681102D03*
X10059055D03*
Y6523622D03*
D22*
X8259843Y6495079D03*
X8297244Y6583661D03*
X8222441D03*
%LPD*%
M02*